<svg xmlns="http://www.w3.org/2000/svg" width="189.93" height="153.061" viewBox="0 0 189.93 153.061">
  <g id="Group_7997" data-name="Group 7997" transform="translate(-83.334 -174.676)">
    <g id="Group_7996" data-name="Group 7996" transform="matrix(0.996, -0.087, 0.087, 0.996, 77.376, 189.013)">
      <path id="Path_4632" data-name="Path 4632" d="M75.738,100.071c-1.557-7.182-3.147-14.357-4.7-21.54-1.282-5.929-2.529-11.867-3.792-17.8a1.019,1.019,0,0,0-.141-.236c.546-1.525-.247-2.863-.645-4.253a1.533,1.533,0,0,0-.378-.37,2.022,2.022,0,0,0-.491-2.46L53.513,56.082h0l-.717-.006c.33-.624.977-.861,1.5-1.244,3.335-2.47,6.689-4.914,10.037-7.368-1.294-5.812-2.6-11.62-3.878-17.436-1.882-8.592-3.733-17.191-5.611-25.783-.376-1.717-1.3-3.076-3.117-3.2C48.5.834,45.268.84,42.041.723c-.713-.026-.825.235-.656.879.393,1.507.747,3.025,1.1,4.543.39,1.686-.052,2.312-1.735,2.3-6.843-.063-13.685-.172-20.527-.231a2.066,2.066,0,0,1-2.269-1.9c-.313-1.583-.787-3.137-1.029-4.73C16.75.443,16.23.156,15.178.154,11.072.148,6.967.063,2.861,0,.17-.038-.382.661.221,3.321q2.179,9.6,4.342,19.213a2.612,2.612,0,0,1,1.361.671,3.385,3.385,0,0,1,1.451,1.058c3.313,3.357,4.7,7.574,5.035,12.2a43.986,43.986,0,0,1-1.474,13.252q6.545,28.31,13.095,56.619c.76,3.28,2.186,4.185,5.445,3.686q21.992-3.365,43.989-6.689C75.658,103,76.214,102.268,75.738,100.071Zm-22.942-44h0Z" transform="translate(56.226 2.636)" fill="#d2dbe3"/>
      <path id="Path_4633" data-name="Path 4633" d="M16.243.422c2.233,3.177.456,6.915-2.415,8.807-.317.209-.645.4-.968.6C8.759,10.488,5,9.387,1.382,7.55,1.059,7.309.559,7.373.354,6.929L0,6.612a1.062,1.062,0,0,1,.145-.471C3.084,1.805,11.361-1.135,16.243.422Z" transform="translate(113.498 111.504)" fill="#f6c078"/>
      <path id="Path_4634" data-name="Path 4634" d="M23.7,2.228c-2.177.323-4.379-.215-6.567.37A18.4,18.4,0,0,0,8.558,7.437c-.346.35-.735.655-1.1.982A43.5,43.5,0,0,1,0,3.434L22.079,0C22.549.8,23.386,1.312,23.7,2.228Z" transform="translate(106.044 109.698)" fill="#e8a548"/>
      <path id="Path_4635" data-name="Path 4635" d="M19.587,1.754A50.347,50.347,0,0,0,21.351,9.22a3.428,3.428,0,0,1-1.056,3.036c-1.78,2.177-6.649,4.584-6.649,4.584l-8.24.9s-1.261.859-1.9,1.281a1.668,1.668,0,0,1-.6-1.146C1.984,13.687.979,9.516.113,5.313A2.9,2.9,0,0,1,.09,3.822,1.753,1.753,0,0,1,1.11,3.033C5.876,1.426,10.638-.209,15.759.022,17.25.089,18.719.244,19.587,1.754Z" transform="translate(121.402 27.952)" fill="#f6c078"/>
      <path id="Path_4636" data-name="Path 4636" d="M0,.755,2.66,0C3.812,5.041,5.081,10.055,5.968,15.158a8.877,8.877,0,0,1-2.592,1.807Q1.781,9.513.189,2.062C.1,1.633.062,1.191,0,.755Z" transform="translate(118.94 31.819)" fill="#e7a549"/>
      <path id="Path_4637" data-name="Path 4637" d="M23.939,1.057c.651,4.508-2.033,7-5.648,8.553A38.717,38.717,0,0,1,2.891,12.4a1.622,1.622,0,0,1-.866-1.327Q1.083,6.769.094,2.471A1.506,1.506,0,0,1,.272,1.046C1.545.735,2.829.461,4.088.1A5.778,5.778,0,0,1,5.94.061L15.662,5.33l1.177,1.128S21.566,2.849,23.939,1.057Z" transform="translate(126.54 53.964)" fill="#f6c078"/>
      <path id="Path_4638" data-name="Path 4638" d="M3.077,0,5.7,11.359c-.954.464-1.976.2-2.964.3L1.786,8.275C.746,6.954.983,5.228.419,3.755.286,2.724-.285,1.728.178.648A10.87,10.87,0,0,1,3.077,0Z" transform="translate(123.735 55.01)" fill="#e7a549"/>
      <path id="Path_4639" data-name="Path 4639" d="M6.47,16.548l-2.741.223Q1.864,8.384,0,0L2.533.13c.841.145,1.1.787,1.275,1.523C4.836,6.025,5.73,10.428,6.738,14.8A1.934,1.934,0,0,1,6.47,16.548Z" transform="translate(127.214 70.306)" fill="#e7a549"/>
      <path id="Path_4640" data-name="Path 4640" d="M3.937,16.418c-.529-4-1.589-7.883-2.49-11.8C1.085,3.049,1.2,1.3,0,0A59.5,59.5,0,0,1,10.5,1.623a20.747,20.747,0,0,1,2.612.97c2.011.895,3.533,2.2,3.674,4.666.166,2.9-.687,5.309-3.216,6.867A17.972,17.972,0,0,1,3.937,16.418Z" transform="translate(129.747 70.436)" fill="#f6c078"/>
      <path id="Path_4662" data-name="Path 4662" d="M32.559,0A32.5,32.5,0,1,1,0,32.558,32.36,32.36,0,0,1,32.559,0Z" transform="translate(125.749 2.297)" fill="#212746"/>
      <path id="Path_4641" data-name="Path 4641" d="M9.8,45.916a26.03,26.03,0,0,0,5.264-3.982,9.011,9.011,0,0,0,2.465-3.9,117.589,117.589,0,0,1,6.076-16.079c1.063-2.24,1.222-4.724,1.659-7.133A41.083,41.083,0,0,1,28.552,3.642a8.222,8.222,0,0,0,.4-1.258C30.366.279,31.852-.345,34.216.172a1.83,1.83,0,0,1,1.428,1.039c.939,2.97,2.34,5.76,3.079,8.818q3.75,15.525-6.37,27.718c-.458.551-.91,1.107-1.431,1.846a7.7,7.7,0,0,0,2-.362c1.278-.42,1.973.089,2.331,1.325,1.939,6.688,4.016,13.338,5.216,20.227a4.067,4.067,0,0,1,.028,1.99c-2.326,7.162-6.442,12.756-13.3,15.93,3.885-.4,7.779-1.022,11.322-3.081A19.878,19.878,0,0,0,41.43,73.45c1.064-.912,1.566-.747,1.97.628.519,1.763.915,3.567,1.45,5.323a2.123,2.123,0,0,1-1.22,2.856,36.671,36.671,0,0,1-11.468,3.972,33.542,33.542,0,0,1-25-5.681,10.073,10.073,0,0,0-1.269-.766A21.532,21.532,0,0,1,.885,69.764,26.9,26.9,0,0,1,1.65,53.616C3.107,49.65,6.109,47.407,9.8,45.916Z" transform="translate(26.657 24.627)" fill="#f6c078"/>
      <path id="Path_4642" data-name="Path 4642" d="M42.478,60.758c-7.134.98-14.27,1.936-21.454,2.444a15.333,15.333,0,0,1-5.67-.486A4.546,4.546,0,0,1,12.119,59.7a3.58,3.58,0,0,1-.872-1.946C7.822,43.485,4.389,29.218.8,15-.214,10.987-.6,7.437,1.721,3.864A15.564,15.564,0,0,0,2.8,1.056C2.982.587,3.037-.11,3.833.015a6.512,6.512,0,0,1,.874,2.673q6.116,26.66,12.33,53.3c.051.217.1.434.16.65.711,2.726,1.9,3.547,4.686,3.153,3.146-.445,6.293-.894,9.432-1.386,10.989-1.721,22-3.328,32.992-5,3.877-.589,4.086-.82,3.246-4.665C65.064,37.349,57.494,1.611,57.494,1.611l2.475-.357s6.593,27.932,7.841,33.56c1.3,5.766,2.525,11.551,3.86,17.308q.133.57.223,1.15c.33,2.111-.473,3.329-2.568,3.681q-2.431.409-4.864.816-9.772,1.614-19.562,3.1A5.431,5.431,0,0,1,42.478,60.758Z" transform="translate(63.566 52.373)" fill="#212746"/>
      <path id="Path_4643" data-name="Path 4643" d="M8.335,25.169a4.063,4.063,0,0,0-4.37,1.376,1.083,1.083,0,0,1-.814.464L.706,13.5c-.18-.331.034-.741-.2-1.061C.352,9.213-.234,6.011.1,2.761.364.231.653-.054,3.136.007Q29.868.668,56.6,1.333c2.187.054,2.977.7,3.5,2.937.655,2.816,1.283,5.638,1.922,8.457.091.361.424.565.567.893,1.343,5.515,2.489,11.076,3.724,16.616.17.761.336,1.522.536,2.275q1.42,6.516,2.881,13.021c.237,1.055.723,2.139.135,3.25A4.39,4.39,0,0,1,68.1,50.1c-.849-.307-.8-1.139-.947-1.808q-4.188-19.036-8.324-38.085c-.25-1.145-.456-2.3-.784-3.425A3.122,3.122,0,0,0,54.7,4.176C52.181,4.144,49.69,3.7,47.16,3.8c-1.178.047-1.616.357-1.24,1.587a29.889,29.889,0,0,1,.793,3.249c.354,1.888-.3,2.8-2.179,2.878-2.571.11-5.147-.006-7.72.058-4.217.105-8.423-.127-12.629-.34-1.758-.089-2.383-.6-2.939-2.363a39.759,39.759,0,0,1-.893-3.914A1.9,1.9,0,0,0,18.2,3.2c-3.887.052-7.776.009-11.663.047-2.083.02-2.508.577-2.043,2.709,1,4.578,2.1,9.131,3.148,13.7.287,1.251.551,2.506.823,3.76C8.594,24,8.8,24.615,8.335,25.169Z" transform="translate(52.455 0)" fill="#212746"/>
      <path id="Path_4644" data-name="Path 4644" d="M34.471,26.6a42.414,42.414,0,0,1-3.435,8.3,1.817,1.817,0,0,0-.069,1.539q6.042,24.932,12.027,49.878a49.353,49.353,0,0,1-22.034,3.008c-2.372-.235-4.706-.857-7.057-1.3a2.181,2.181,0,0,1-1.282-.137A31.669,31.669,0,0,1,1.774,81.206C.972,80.434.031,79.669,0,78.358c1.391.419,2.4,1.49,3.632,2.194A33.394,33.394,0,0,0,23.644,85,34.826,34.826,0,0,0,37.91,80.444c.6-.341.9-.626.651-1.428C37.939,77,37.4,74.959,36.915,72.907c-.193-.808-.341-1.176-1.086-.443-4.5,4.426-10.179,5.244-16.074,5.449a45.219,45.219,0,0,0,5.41-3.18,25.1,25.1,0,0,0,8.884-13.349c.533-1.915-.42-3.941-.876-5.856-1.284-5.4-2.8-10.745-4.393-16.061-.313-1.042-.664-1.3-1.71-.961a6.969,6.969,0,0,1-3.211.486A65.015,65.015,0,0,0,29,32.211,29.275,29.275,0,0,0,33.077,14,41.858,41.858,0,0,0,29.541,1.4c-.176-.4-.72-.828-.082-1.3.943-.354,1.423.392,1.932.917a18.457,18.457,0,0,1,5,12.076,36.732,36.732,0,0,1-1.139,11.965C35.1,25.611,35.171,26.317,34.471,26.6Z" transform="translate(32.692 25.748)" fill="#e8a548"/>
      <path id="Path_4645" data-name="Path 4645" d="M9.058,1.16C11.635.917,14.108-.069,16.728,0c.916.026,1.83.1,2.745.148.214.731-.35,1.132-.7,1.6a35.7,35.7,0,0,0-7.243,17.909,27.092,27.092,0,0,0,6.455,21.077,27.324,27.324,0,0,0,8.182,6.572c.383.2.8.389.929.879-.384.625-.913.352-1.416.244l-2.575-.079A4.214,4.214,0,0,0,21,48.243c-4.76.618-8.356-1.837-11.661-4.735A26.281,26.281,0,0,1,.169,26.1,29.663,29.663,0,0,1,2.688,10.75a34.587,34.587,0,0,1,5-8.453C8.076,1.83,8.407,1.3,9.058,1.16Z" transform="translate(10.924 67.46)" fill="#212746"/>
      <path id="Path_4646" data-name="Path 4646" d="M9.431.213,14.345.161a6.522,6.522,0,0,1,2.118-.1c.4,0,.952-.268,1.171.264.187.453-.183.852-.44,1.2a36.6,36.6,0,0,0-5.172,9.507C8.478,21.02,9.167,30.484,15.587,39.1a26.759,26.759,0,0,0,9.058,7.838c.571.3,1.238.506,1.472,1.235l-1.3,1.39a40.069,40.069,0,0,1-7.343.06c-2.676-.211-4.65-2.069-6.67-3.649a29.345,29.345,0,0,1-5.51-5.891,9.651,9.651,0,0,1-1.5-3.287C-1.149,27.53-1.4,18.261,3.858,8.981,4.736,5.806,6.7,3.279,8.612.72A1.237,1.237,0,0,1,9.431.213Z" transform="translate(0 68.367)" fill="#212746"/>
      <path id="Path_4647" data-name="Path 4647" d="M9.356,36.016c3.315,4.692,8.035,7.32,13.182,9.324.247.1.48.232.72.348a3.5,3.5,0,0,1-2.729,2.08A20.041,20.041,0,0,1,9.914,42.909a25.814,25.814,0,0,1-9.6-16.595A31.193,31.193,0,0,1,3.755,7.2,32.33,32.33,0,0,1,7.871.943C8.271.475,8.6-.264,9.451.1a9.6,9.6,0,0,1,3.672,2.358,15.511,15.511,0,0,1-2.011,1.429c-4.2,2.1-6.065,5.853-6.823,10.252C2.906,22.149,4.418,29.517,9.356,36.016Z" transform="translate(23.335 68.09)" fill="#212746"/>
      <path id="Path_4648" data-name="Path 4648" d="M10.975.632c-1.2.582-1.794,1.757-2.519,2.772-4.791,6.7-7.431,14.206-6.3,22.461,1.5,10.972,7.741,18.253,18.1,21.767.6.2,1.319.123,1.8.672-1.4.679-2.868.2-4.3.278-.531-.292-1.3.089-1.688-.6a26.224,26.224,0,0,1-14-14.882C-1.78,23.35.058,14.112,5,5.247A40.968,40.968,0,0,1,8.586.059,3.084,3.084,0,0,1,10.975.632Z" transform="translate(21.811 67.553)" fill="#febe2d"/>
      <path id="Path_4649" data-name="Path 4649" d="M16.6,48.364C1.232,41.3-7.18,20.929,8.013.351L4.825.357a10.065,10.065,0,0,1,5.637.091A38.991,38.991,0,0,0,2.715,15.432C-.513,28.452,5.6,41.282,17.628,46.715a6.99,6.99,0,0,0,3,.656,9.373,9.373,0,0,1,3.881.265C21.872,47.86,19.162,47.266,16.6,48.364Z" transform="translate(9.52 68.172)" fill="#febe2d"/>
      <path id="Path_4650" data-name="Path 4650" d="M18,0a1.385,1.385,0,0,0,.032.317L0,.35V.033Z" transform="translate(9.099 118.884)" fill="#fefce8"/>
      <path id="Path_4651" data-name="Path 4651" d="M0,.62A.98.98,0,0,0,.024.3c1.3-.161,2.65.32,3.92-.3L4.971.621Z" transform="translate(109.909 118.432)" fill="#fdf9e3"/>
      <path id="Path_4652" data-name="Path 4652" d="M1.265,0,2.954.6C1.964.583.948.876,0,.355.407.18.943.492,1.265,0Z" transform="translate(36.608 115.533)" fill="#a9e3b2"/>
      <path id="Path_4653" data-name="Path 4653" d="M2.6,5.69A2.625,2.625,0,0,1,4.883,6.945c1.267,1.769,2.609,3.484,3.824,5.288.551.819.87.816,1.554.142,3.877-3.818,7.8-7.586,11.7-11.377a2.64,2.64,0,0,1,4.677,1.932A2.673,2.673,0,0,1,25.713,4.8q-7.352,7.117-14.72,14.217a2.538,2.538,0,0,1-4.17-.366C4.7,15.8,2.6,12.934.546,10.027A2.708,2.708,0,0,1,2.6,5.69Z" transform="translate(144.31 24.849)" fill="#febe2d"/>
      <path id="Path_4654" data-name="Path 4654" d="M.4,3Q.2,1.7,0,.389L2.1,0l.589,3A2.151,2.151,0,0,1,.7,3.371Z" transform="translate(121.816 55.658)" fill="#4e4752"/>
      <path id="Path_4655" data-name="Path 4655" d="M.533,2.287l2.834,1.8c.268-1.067-.27-1.943-.219-2.864C3.173.778,2.554,0,3.658.017c.732.011,1.581-.26,1.66,1,.061.975.3,1.939.452,2.9.592.165.79-.3,1.072-.54,1.513-1.28,1.48-1.273,2.444.377.344.589.414.993-.181,1.448-.57.436-1.074.963-1.615,1.458.25.641.838.786,1.276,1.082,1.808,1.222,1.817,1.208,1.021,3.481-1.1-.269-1.852-1.39-3.124-1.5.171.97.34,1.813.461,2.663.083.581.374,1.264-.676,1.328-.848.052-1.493.1-1.541-1.088A22.5,22.5,0,0,0,4.421,9.7c-.669.045-.872.638-1.305.847-.486.235-.813,1.464-1.485.531-.548-.761-1.866-1.7-.273-2.79.211-.145.365-.374.575-.519.871-.6.905-1.135-.092-1.614a2.036,2.036,0,0,1-.258-.169C-.3,4.687-.3,4.687.533,2.287Z" transform="translate(70.934 37.906)" fill="#4a4350"/>
      <path id="Path_4656" data-name="Path 4656" d="M4.546,9.154c-.474.416-.743.651-1.011.888-1.348,1.193-2.226.933-2.712-.818-.23-.829.541-1.071.957-1.377,1.227-.9,1.075-1.495-.2-2.126C.5,5.186-.465,4.606.241,3c.338-.77.568-.684,1.068-.342.629.428,1.262.85,1.963,1.322.367-1-.064-1.916-.167-2.853C3.053.652,2.794-.026,3.682.055c.573.053,1.392-.418,1.563.7.165,1.072.416,2.131.654,3.322.376-.293.66-.5.929-.726,1.595-1.34,1.528-1.3,2.608.427.681,1.089-.292,1.313-.743,1.648-1.193.888-1.114,1.4.176,2.107,1.963,1.08,1.922,1.157,1.079,3.388-.5-.284-.975-.575-1.469-.837-.439-.233-.8-.671-1.382-.6-.242.863.272,1.642.237,2.458-.018.421.74,1.229-.377,1.262-.714.021-1.7.487-1.8-.943A26.072,26.072,0,0,0,4.546,9.154Z" transform="translate(82.694 37.872)" fill="#4a4350"/>
      <path id="Path_4657" data-name="Path 4657" d="M7.041,8.949c.2,1,.405,1.852.547,2.716.073.44.5,1.129-.417,1.148-.626.013-1.5.489-1.729-.666-.2-1.017-.439-2.029-.659-3.038-.527-.064-.735.362-1.028.607C2.222,11,2.251,10.989,1.219,9.351c-.332-.527-.4-.873.136-1.29C1.922,7.625,2.426,7.1,3.1,6.487,2.228,5.943,1.456,5.48.7,4.986.342,4.748-.079,4.611.013,3.941.238,2.3.523,2.124,1.949,2.993c.476.29.956.571,1.552.927a10,10,0,0,0-.369-2.659C3.082.833,2.58.12,3.508.114c.6,0,1.513-.519,1.7.674.049.307.157.6.221.908.462,2.213.48,2.241,2.175.944.533-.408.952-.493,1.187.151s1.573,1.038.549,2.03c-.514.5-1.069.955-1.749,1.558.874.538,1.62,1.026,2.394,1.462a1.045,1.045,0,0,1,.68,1.211c-.225,1.459-.425,1.591-1.679.882q-.735-.415-1.475-.822A4.138,4.138,0,0,0,7.041,8.949Z" transform="translate(94.464 37.821)" fill="#4a4350"/>
      <path id="Path_4658" data-name="Path 4658" d="M4.8,8.816c-1.168-.288-1.356,2.381-2.922.937-2.093-1.931.6-2.392,1.092-3.6C2.171,5.674,1.391,5.2.605,4.742A.959.959,0,0,1,0,3.78C.061,2.347.477,2.075,1.692,2.763q.8.453,1.606.9c.039.022.1,0,.274,0L2.816.2C4.239-.225,5.234-.073,5.363,1.714a9.811,9.811,0,0,0,.51,1.9c1.174.2,1.654-2.754,3.264-.51,1.507,2.1-1.322,1.835-1.253,3.206A17.876,17.876,0,0,0,9.963,7.468c1.381.57.66,1.524.451,2.344-.112.439-.488.178-.747.042C8.87,9.435,8.074,9.012,7.1,8.5l.837,3.642C5.968,12.452,5.968,12.452,4.8,8.816Z" transform="translate(106.331 37.838)" fill="#4b4350"/>
      <path id="Path_4659" data-name="Path 4659" d="M0,22.185,21.6,5.5l7,3.8L34.818,0l8.426,15.7L32.023,23.257l-9.543-5.876Z" transform="translate(99.548 40.542)" fill="#212746"/>
      <path id="Path_4660" data-name="Path 4660" d="M0,0,24.933,8.123,23.48,1.2Z" transform="translate(99.548 62.726)" fill="#b5bcc2"/>
      <path id="Path_4661" data-name="Path 4661" d="M2.709,2.906,44.316.007a2.891,2.891,0,0,1,3.016,2.311L53.343,30.6a2.961,2.961,0,0,1-2.422,3.559L10.889,40.11A2.885,2.885,0,0,1,7.671,37.9L.086,6.571A2.957,2.957,0,0,1,2.709,2.906Z" transform="translate(75.754 69.847)" fill="#fff" opacity="0.4"/>
    </g>
    <ellipse id="Ellipse_677" data-name="Ellipse 677" cx="84" cy="3" rx="84" ry="3" transform="translate(98.999 321.737)" fill="#f4f5f7"/>
  </g>
</svg>
