<svg xmlns="http://www.w3.org/2000/svg" width="10.796" height="18" viewBox="0 0 10.796 18">
  <g id="_3643767-key-keys-main-password-privilege" data-name="3643767-key-keys-main-password-privilege" transform="translate(-6.999 -0.987)">
    <path id="Path_1314" data-name="Path 1314" d="M12.4,18.987a.6.6,0,0,1-.36-.12l-2.4-1.8a.6.6,0,0,1-.24-.48V10.872a5.4,5.4,0,1,1,6,0v.918a.6.6,0,0,1-.174.426l-.78.774.78.774a.6.6,0,0,1,0,.852l-.78.774.78.774a.6.6,0,0,1-.066.906l-2.4,1.8A.6.6,0,0,1,12.4,18.987Zm-1.8-2.7,1.8,1.349,1.487-1.116-.714-.708a.6.6,0,0,1,0-.852l.78-.774-.78-.774a.6.6,0,0,1,0-.852l1.026-1.02v-1a.6.6,0,0,1,.3-.516,4.2,4.2,0,1,0-4.2,0,.6.6,0,0,1,.3.516Zm4.2-4.5Z" transform="translate(0)" fill="#212746"/>
    <circle id="Ellipse_356" data-name="Ellipse 356" cx="0.6" cy="0.6" r="0.6" transform="translate(11.798 4.593)" fill="#212746"/>
    <path id="Path_1315" data-name="Path 1315" d="M15.2,8.4a1.2,1.2,0,1,1,1.2-1.2A1.2,1.2,0,0,1,15.2,8.4ZM15.2,7.2Z" transform="translate(-2.802 -2.007)" fill="#212746"/>
  </g>
</svg>
