<svg xmlns="http://www.w3.org/2000/svg" width="13.122" height="15.357" viewBox="0 0 13.122 15.357">
  <g id="Group_186" data-name="Group 186" transform="translate(0 0)">
    <path id="Path_11" data-name="Path 11" d="M12.842,2.59,9.806.221A1.013,1.013,0,0,0,8.363.406l-7,8.884a.822.822,0,0,0-.185.407L.145,14.1a.965.965,0,0,0,.37,1.036,1.074,1.074,0,0,0,1.111.111L5.66,13.214a1.449,1.449,0,0,0,.37-.3l7-8.847A1.093,1.093,0,0,0,12.842,2.59ZM4.7,11.659,2.366,12.844l.592-2.554L7.067,5.07l1.74,1.37ZM9.917,5l-1.74-1.37L9.325,2.183l1.74,1.37Z" transform="translate(-0.112 0.002)" fill="#212746"/>
  </g>
</svg>
