<svg xmlns="http://www.w3.org/2000/svg" width="33.066" height="19.84" viewBox="0 0 33.066 19.84">
  <g id="Group_7603" data-name="Group 7603" transform="translate(-52 -498)">
    <path id="Path_1253" data-name="Path 1253" d="M467.533,86.567h-8.941v15.6h8.941Z" transform="translate(-394.529 413.555)" fill="#ff5f00"/>
    <g id="Group_2527" data-name="Group 2527" transform="translate(52 498)">
      <path id="Path_1254" data-name="Path 1254" d="M456.63,93.92a9.843,9.843,0,0,1,3.889-7.8,10.35,10.35,0,0,0-6.3-2.122,9.924,9.924,0,1,0,0,19.84,10.35,10.35,0,0,0,6.3-2.122A9.8,9.8,0,0,1,456.63,93.92Z" transform="translate(-444 -84)" fill="#eb001b"/>
      <path id="Path_1255" data-name="Path 1255" d="M480.536,93.92a10.066,10.066,0,0,1-10.217,9.92,10.351,10.351,0,0,1-6.3-2.122,9.763,9.763,0,0,0,0-15.6,10.35,10.35,0,0,1,6.3-2.122A10.083,10.083,0,0,1,480.536,93.92Z" transform="translate(-447.47 -84)" fill="#f79e1b"/>
    </g>
  </g>
</svg>
