  <svg id="nigeria" xmlns="http://www.w3.org/2000/svg" width="23" height="16" viewBox="0 0 23 16">
  <path id="Path_1125" data-name="Path 1125" d="M278.285,169.3v-14.46h-6.931v1.142a.383.383,0,0,1-.385.381v.761a.383.383,0,0,1,.385.381v11.8h6.931Z" transform="translate(-263.309 -154.069)" fill="#fff"/>
  <rect id="Rectangle_1644" data-name="Rectangle 1644" width="6.991" height="14.519" transform="translate(15.269 0.74)" fill="#259245"/>
  <rect id="Rectangle_1645" data-name="Rectangle 1645" width="6.931" height="14.46" transform="translate(15.298 0.77)" fill="#259245"/>
  <path id="Path_1126" data-name="Path 1126" d="M24.807,168.358V153.839H31.8v1.171a.354.354,0,0,0,.355.351h.03v.82h-.03a.354.354,0,0,0-.355.351v11.826H24.807Z" transform="translate(-24.067 -153.099)" fill="#259245"/>
  <path id="Path_1127" data-name="Path 1127" d="M32.738,155.981v-1.142H25.807V169.3h6.931V157.5a.383.383,0,0,1,.385-.381v-.761A.383.383,0,0,1,32.738,155.981Z" transform="translate(-25.037 -154.069)" fill="#259245"/>
  <path id="Path_1128" data-name="Path 1128" d="M22.629,129.032H.371a.376.376,0,0,0-.371.381v15.238a.376.376,0,0,0,.371.381H22.629a.376.376,0,0,0,.371-.381V129.413A.376.376,0,0,0,22.629,129.032Zm-.371,15.238H15.581V129.794h6.677V144.27ZM7.79,132.08a.376.376,0,0,0-.371.381v11.81H.742V129.794H7.419v1.143a.371.371,0,1,0,.742,0v-1.143h6.677V144.27H8.161v-11.81A.376.376,0,0,0,7.79,132.08Z" transform="translate(0 -129.032)" fill="none"/>
</svg>
