<svg xmlns="http://www.w3.org/2000/svg" width="236.702" height="244.76" viewBox="0 0 236.702 244.76">
  <g id="Group_7978" data-name="Group 7978" transform="translate(-54.518 -46.336)" opacity="0.1">
    <g id="Group_7678" data-name="Group 7678" transform="translate(121.919 124.41)">
      <path id="Path_4457" data-name="Path 4457" d="M166.678,177.811a8.621,8.621,0,0,0,4.392,7.9c.277.162,2.634-1.664,2.958-1.872.693-.439,1.387-.9,2.058-1.364a5.565,5.565,0,0,1,.855-.578,8.623,8.623,0,0,1-4.392-7.9,6.82,6.82,0,0,1-.878.532c-.693.439-1.387.878-2.08,1.34-.694.439-1.387.9-2.058,1.364-.138.093-.832.462-.855.578Z" transform="translate(-166.67 -173.997)" fill="#fa7697"/>
    </g>
    <g id="Group_7680" data-name="Group 7680" transform="translate(162.451 125.346)">
      <g id="Group_7679" data-name="Group 7679">
        <path id="Path_4458" data-name="Path 4458" d="M234.161,182.051a7.056,7.056,0,0,0,7.9,6.38,5.834,5.834,0,0,0,.416-.924c.324-.764.647-1.526.971-2.265.324-.763.624-1.526.947-2.288a5.463,5.463,0,0,1,.37-.948,7.056,7.056,0,0,1-7.9-6.379,4.371,4.371,0,0,1-.416.925c-.324.763-.647,1.525-.971,2.265-.324.763-.624,1.526-.947,2.288-.093.231-.393.693-.37.947Z" transform="translate(-234.159 -175.626)" fill="#ffbc1f"/>
      </g>
    </g>
    <g id="Group_7682" data-name="Group 7682" transform="translate(113.852 230.219)">
      <g id="Group_7681" data-name="Group 7681">
        <path id="Path_4459" data-name="Path 4459" d="M153.163,353.47l8.39-.347c.161,0-.023-6.981.023-6.981l-8.39.347c-.162,0,.023,6.981-.023,6.981Z" transform="translate(-153.118 -346.143)" fill="#ffbc1f"/>
      </g>
    </g>
    <g id="Group_7684" data-name="Group 7684" transform="translate(91.211 88.977)">
      <g id="Group_7683" data-name="Group 7683">
        <path id="Path_4460" data-name="Path 4460" d="M114.483,108.781a32.1,32.1,0,0,0-3.757-2.579,4.8,4.8,0,0,0-2.165-.939,3.15,3.15,0,0,0-3.344,3.04,3.81,3.81,0,0,0,.573.4c.462.318.939.637,1.417.955s.939.621,1.417.939c.064.048.605.334.589.382a3.153,3.153,0,0,1,4.728-2.611c-.1-.064-.191-.111-.287-.175-1.067-.7-2.117-1.385-3.184-2.085a16.8,16.8,0,0,0,1.99,1.353,22.084,22.084,0,0,1,2.022,1.322Z" transform="translate(-105.217 -105.253)" fill="#ff8164"/>
      </g>
    </g>
    <g id="Group_7686" data-name="Group 7686" transform="translate(180.367 246.704)">
      <g id="Group_7685" data-name="Group 7685">
        <path id="Path_4461" data-name="Path 4461" d="M264.317,382.587A7.349,7.349,0,0,0,266.882,391a4.713,4.713,0,0,0,1.017-.023c.832-.023,1.641-.069,2.474-.116l2.473-.138c.185,0,.9-.162,1.017-.069a7.316,7.316,0,0,1-2.566-8.414,27.256,27.256,0,0,1-3.49.139l-2.474.138c-.115,0-.994-.022-1.017.069Z" transform="translate(-263.881 -382.24)" fill="#ff8164"/>
      </g>
    </g>
    <g id="Group_7688" data-name="Group 7688" transform="translate(192.251 94.46)">
      <g id="Group_7687" data-name="Group 7687">
        <path id="Path_4462" data-name="Path 4462" d="M284.418,130.272a12.166,12.166,0,0,0,9.754,6.032,4.881,4.881,0,0,0,.693-.763c.554-.624,1.086-1.225,1.618-1.848s1.086-1.248,1.618-1.872c.093-.116.555-.786.647-.786A12.166,12.166,0,0,1,288.994,125c.069.116-2.126,2.381-2.311,2.612-.208.232-2.4,2.427-2.265,2.658Z" transform="translate(-284.411 -125.002)" fill="#ffbc1f"/>
      </g>
    </g>
    <g id="Group_7690" data-name="Group 7690" transform="translate(198.405 52.246)">
      <g id="Group_7689" data-name="Group 7689">
        <path id="Path_4463" data-name="Path 4463" d="M300.441,59.81a6.766,6.766,0,0,0-3.534-5.307,2.785,2.785,0,0,0-.528.225c-.424.187-.832.368-1.246.56s-.837.38-1.251.572a2.578,2.578,0,0,1-.509.248,6.764,6.764,0,0,1,3.533,5.307c-.008-.075,1.626-.711,1.773-.785a8.588,8.588,0,0,0,1.76-.819Z" transform="translate(-293.374 -54.502)" fill="#ffbc1f"/>
      </g>
    </g>
    <g id="Group_7691" data-name="Group 7691" transform="translate(256.701 121.702)">
      <path id="Path_4464" data-name="Path 4464" d="M399.472,170.864c-.557,1.031-1.128,2.061-1.685,3.091.028-.041,1.866.544,2.019.585a13.951,13.951,0,0,0,2.032.544c.557-1.031,1.128-2.061,1.685-3.091-.027.041-2.7-2.841-2.868-2.883s-1.141,1.657-1.183,1.754Z" transform="translate(-397.787 -169.109)" fill="#fa7697"/>
    </g>
    <g id="Group_7692" data-name="Group 7692" transform="translate(98.139 185.736)">
      <path id="Path_4465" data-name="Path 4465" d="M132.4,274.575a6.249,6.249,0,0,0-5.362,7.092,24.875,24.875,0,0,0,1.087,3.321,21.538,21.538,0,0,1,1.151,3.292,6.24,6.24,0,0,1,5.362-7.093c-.073.009-1.011-3.051-1.088-3.321a19.47,19.47,0,0,0-1.15-3.291Z" transform="translate(-126.962 -274.575)" fill="#fa7697"/>
    </g>
    <g id="Group_7694" data-name="Group 7694" transform="translate(282.386 142.434)">
      <g id="Group_7693" data-name="Group 7693">
        <path id="Path_4466" data-name="Path 4466" d="M438.326,211.461c-.256-2.592-.512-5.2-.751-7.8a14.654,14.654,0,0,0-2.149-.29c-.171-.017-2.15-.187-2.15-.255.256,2.592.512,5.2.75,7.8a14.68,14.68,0,0,0,2.15.29c.17.034,2.15.2,2.15.255Z" transform="translate(-433.276 -203.12)" fill="#ffbc1f"/>
      </g>
    </g>
    <g id="Group_7696" data-name="Group 7696" transform="translate(130.973 231.477)">
      <g id="Group_7695" data-name="Group 7695">
        <path id="Path_4467" data-name="Path 4467" d="M182.206,349.208a11.081,11.081,0,0,0,1.295,9.8,6.377,6.377,0,0,0,1.017-.046l2.473-.139c.832-.046,1.641-.093,2.473-.162a9.155,9.155,0,0,1,1.017-.092,11.01,11.01,0,0,1-1.294-9.8,23.492,23.492,0,0,1-3.49.161c-.37.069-3.4,0-3.491.277Z" transform="translate(-181.605 -348.769)" fill="#30d6af"/>
      </g>
    </g>
    <g id="Group_7698" data-name="Group 7698" transform="translate(168.27 266.621)">
      <g id="Group_7697" data-name="Group 7697">
        <path id="Path_4468" data-name="Path 4468" d="M243.915,416.725a11.082,11.082,0,0,0,9.883.227,6.316,6.316,0,0,0,.11-1.012c.083-.829.161-1.636.243-2.465s.161-1.636.22-2.469a9.247,9.247,0,0,1,.065-1.019,11.011,11.011,0,0,1-9.883-.227,23.518,23.518,0,0,1-.376,3.473c.012.376-.523,3.357-.263,3.491Z" transform="translate(-243.843 -409.76)" fill="#30d6af"/>
      </g>
    </g>
    <g id="Group_7700" data-name="Group 7700" transform="translate(86.455 114.709)">
      <g id="Group_7699" data-name="Group 7699">
        <path id="Path_4469" data-name="Path 4469" d="M105.3,160.169c-2.083-.787-4.166-1.589-6.265-2.376.062.031-.185,2.129-.2,2.33a12.573,12.573,0,0,0-.155,2.33c2.084.787,4.167,1.589,6.265,2.376-.062-.03.185-2.129.2-2.33a10.425,10.425,0,0,0,.154-2.33Z" transform="translate(-98.646 -157.793)" fill="#3f67f2"/>
      </g>
    </g>
    <g id="Group_7702" data-name="Group 7702" transform="translate(210.569 196.396)">
      <g id="Group_7701" data-name="Group 7701">
        <path id="Path_4470" data-name="Path 4470" d="M314.4,298.143a10.65,10.65,0,0,0,8.39.925,27.717,27.717,0,0,0-.208-3.491c-.023-.277-.37-3.444-.277-3.49a10.649,10.649,0,0,1-8.39-.924c.023.022.046,1.155.046,1.017.046.832.092,1.641.161,2.473.046.832.116,1.641.185,2.473,0,.139-.023.971.093,1.017Z" transform="translate(-313.918 -291.163)" fill="#ffbc1f"/>
      </g>
    </g>
    <g id="Group_7704" data-name="Group 7704" transform="translate(256.189 165.326)">
      <g id="Group_7703" data-name="Group 7703">
        <path id="Path_4471" data-name="Path 4471" d="M397.08,245c1.5,1.618,2.982,3.236,4.484,4.854.138.138,5.339-4.484,5.409-4.415-1.5-1.618-2.982-3.236-4.484-4.854-.138-.138-5.362,4.484-5.409,4.415Z" transform="translate(-397.08 -240.586)" fill="#3f67f2"/>
      </g>
    </g>
    <g id="Group_7706" data-name="Group 7706" transform="translate(241.825 168.267)">
      <g id="Group_7705" data-name="Group 7705">
        <path id="Path_4472" data-name="Path 4472" d="M365.814,252.884c2.194-.249,4.374-.479,6.568-.728.194-.03-.44-6.959-.343-6.973-2.194.249-4.374.479-6.568.728-.194.03.426,6.978.343,6.973Z" transform="translate(-365.433 -245.183)" fill="#3f67f2"/>
      </g>
    </g>
    <g id="Group_7708" data-name="Group 7708" transform="translate(148.349 214.512)">
      <g id="Group_7707" data-name="Group 7707">
        <path id="Path_4473" data-name="Path 4473" d="M215.553,321.173l-4.785,8.112c.161-.254,6.287,2.936,6.495,2.589l4.785-8.112c-.162.277-6.287-2.935-6.495-2.589Z" transform="translate(-210.768 -321.147)" fill="#ffbc1f"/>
      </g>
    </g>
    <g id="Group_7710" data-name="Group 7710" transform="translate(193.199 236.076)">
      <g id="Group_7709" data-name="Group 7709">
        <path id="Path_4474" data-name="Path 4474" d="M290.237,367.582l-4.784,8.113c.161-.254,6.286,2.936,6.495,2.589l4.784-8.113c-.161.277-6.286-2.936-6.495-2.589Z" transform="translate(-285.453 -367.556)" fill="#ffbc1f"/>
      </g>
    </g>
    <g id="Group_7712" data-name="Group 7712" transform="translate(192.351 280.312)">
      <g id="Group_7711" data-name="Group 7711">
        <path id="Path_4475" data-name="Path 4475" d="M283.118,432.572l5.1,1.364c-.161-.048.641-3.836.422-3.9l-5.1-1.364c.174.046-.641,3.836-.422,3.9Z" transform="translate(-283.08 -428.676)" fill="#ffbc1f"/>
      </g>
    </g>
    <g id="Group_7714" data-name="Group 7714" transform="translate(115.098 272.103)">
      <g id="Group_7713" data-name="Group 7713">
        <path id="Path_4476" data-name="Path 4476" d="M157.447,417.348l-2.458,4.167c.083-.131,3.23,1.508,3.336,1.33l2.458-4.167c-.083.143-3.229-1.508-3.336-1.33Z" transform="translate(-154.989 -417.334)" fill="#ffbc1f"/>
      </g>
    </g>
    <g id="Group_7716" data-name="Group 7716" transform="translate(83.876 136.706)">
      <g id="Group_7715" data-name="Group 7715">
        <path id="Path_4477" data-name="Path 4477" d="M95.114,200.856c.161.6.347,1.2.508,1.8.185.624.116.462.624.578a3.9,3.9,0,0,0,1.156-.046l4.369-.138c.347,0,.416-6.957.647-6.957l-4.369.138c-.3,0-.6.023-.924.023-.231,0-.462.023-.693.023-.046-.138-.069-.277-.116-.393a11.2,11.2,0,0,1-.578-2.011,6.174,6.174,0,0,1-.116,1.017c-.093.809-.161,1.641-.231,2.45s-.162,1.641-.208,2.45a3.4,3.4,0,0,0-.069,1.063Z" transform="translate(-95.082 -193.876)" fill="#30d6af"/>
      </g>
    </g>
    <g id="Group_7717" data-name="Group 7717" transform="translate(167.823 114.503)">
      <path id="Path_4478" data-name="Path 4478" d="M242.316,157.413c.162,1.71.3,3.42.462,5.131a10.96,10.96,0,0,0,2.219.67,15.584,15.584,0,0,1,2.242.624c-.162-1.71-.3-3.42-.462-5.131a10.946,10.946,0,0,0-2.219-.67,13.075,13.075,0,0,1-2.242-.624Z" transform="translate(-242.316 -157.413)" fill="#fa7697"/>
    </g>
    <g id="Group_7719" data-name="Group 7719" transform="translate(239.113 190.149)">
      <g id="Group_7718" data-name="Group 7718">
        <path id="Path_4479" data-name="Path 4479" d="M361.071,285.219a6.91,6.91,0,0,0,6.541.162,11.613,11.613,0,0,0-.069-2.335,13.987,13.987,0,0,1-.116-2.335,6.973,6.973,0,0,1-6.541-.161,10.9,10.9,0,0,1,.069,2.335c0,.3-.138,2.2.116,2.334Z" transform="translate(-360.886 -280.55)" fill="#ff8164"/>
      </g>
    </g>
    <g id="Group_7721" data-name="Group 7721" transform="translate(187.838 200.163)">
      <g id="Group_7720" data-name="Group 7720">
        <path id="Path_4480" data-name="Path 4480" d="M277.571,297.039c-.624,1.71-1.248,3.421-1.872,5.108,0,.023,4.368,1.618,4.368,1.6.624-1.711,1.248-3.421,1.872-5.108,0-.023-4.369-1.618-4.369-1.6Z" transform="translate(-275.699 -297.039)" fill="#ff8164"/>
      </g>
    </g>
    <g id="Group_7723" data-name="Group 7723" transform="translate(85.719 201.24)">
      <g id="Group_7722" data-name="Group 7722">
        <path id="Path_4481" data-name="Path 4481" d="M97.629,298.727c.092,2.011.185,4.045.277,6.056,0,.185,4.646.115,4.646.231-.093-2.011-.185-4.045-.277-6.056,0-.162-4.646-.116-4.646-.232Z" transform="translate(-97.629 -298.727)" fill="#30d6af"/>
      </g>
    </g>
    <g id="Group_7725" data-name="Group 7725" transform="translate(56.768 182.473)">
      <g id="Group_7724" data-name="Group 7724">
        <path id="Path_4482" data-name="Path 4482" d="M57.627,268.242c.74,1.872,1.479,3.768,2.219,5.64.115.277,1.941.578,2.242.67s2.15.347,2.241.624c-.74-1.872-1.479-3.767-2.219-5.639-.115-.277-1.941-.578-2.241-.67-.278-.093-2.126-.37-2.242-.625Z" transform="translate(-57.627 -268.242)" fill="#ffbc1f"/>
      </g>
    </g>
    <g id="Group_7727" data-name="Group 7727" transform="translate(103.157 166.623)">
      <g id="Group_7726" data-name="Group 7726">
        <path id="Path_4483" data-name="Path 4483" d="M121.723,245.659c1.525,1.11,3.051,2.242,4.576,3.352.208.161,3.12-3.421,3.305-3.282-1.526-1.109-3.051-2.242-4.577-3.352-.231-.185-3.143,3.4-3.3,3.282Z" transform="translate(-121.723 -242.369)" fill="#ff8164"/>
      </g>
    </g>
    <g id="Group_7729" data-name="Group 7729" transform="translate(205.721 221.671)">
      <g id="Group_7728" data-name="Group 7728">
        <path id="Path_4484" data-name="Path 4484" d="M311.065,332.456a10.242,10.242,0,0,1-5.131,6.588,10.458,10.458,0,0,1,2.08,1.063c.277.139,1.826,1.156,2.1,1.017a10.242,10.242,0,0,0,5.131-6.587c.069-.37-4.276-1.78-4.183-2.081Z" transform="translate(-305.934 -332.456)" fill="#3f67f2"/>
      </g>
    </g>
    <g id="Group_7731" data-name="Group 7731" transform="translate(134.057 96.817)">
      <g id="Group_7730" data-name="Group 7730">
        <path id="Path_4485" data-name="Path 4485" d="M186.587,120.132c1.688.809,3.4,1.6,5.085,2.4.139.069,2.219-4.091,2.312-4.044-1.687-.809-3.4-1.6-5.085-2.4-.139-.069-2.242,4.068-2.312,4.045Z" transform="translate(-186.587 -116.086)" fill="#ff8164"/>
      </g>
    </g>
    <g id="Group_7733" data-name="Group 7733" transform="translate(136.539 54.024)">
      <g id="Group_7732" data-name="Group 7732">
        <path id="Path_4486" data-name="Path 4486" d="M190.36,59.064c.879.421,1.769.83,2.647,1.251.072.036,1.155-2.129,1.2-2.1-.878-.421-1.768-.83-2.646-1.251-.072-.036-1.167,2.118-1.2,2.105Z" transform="translate(-190.36 -56.958)" fill="#ff8164"/>
      </g>
    </g>
    <g id="Group_7734" data-name="Group 7734" transform="translate(247.14 137.289)">
      <path id="Path_4487" data-name="Path 4487" d="M384.577,197.941a2.977,2.977,0,0,0,3.745,2.658c.115-.023.439-.462.462-.486.371-.393.74-.809,1.109-1.2.37-.415.74-.808,1.109-1.225.093-.116.324-.486.439-.509a2.976,2.976,0,0,1-3.744-2.658,4.945,4.945,0,0,1-.462.485c-.37.393-.74.809-1.109,1.2-.37.416-.74.809-1.11,1.225-.069.069-.439.392-.439.508Z" transform="translate(-384.577 -194.521)" fill="#fa7697"/>
    </g>
    <g id="Group_7736" data-name="Group 7736" transform="translate(71.135 142.728)">
      <g id="Group_7735" data-name="Group 7735">
        <path id="Path_4488" data-name="Path 4488" d="M77.5,204.557a3.835,3.835,0,0,0,1.511,3.494,6.179,6.179,0,0,0,1.065-.644,9.192,9.192,0,0,1,1.053-.669,3.835,3.835,0,0,1-1.511-3.494c-.012.124-.942.557-1.065.644-.148.1-1.028.483-1.053.669Z" transform="translate(-77.478 -203.244)" fill="#30d6af"/>
      </g>
    </g>
    <g id="Group_7738" data-name="Group 7738" transform="translate(130.594 131.526)">
      <g id="Group_7737" data-name="Group 7737">
        <path id="Path_4489" data-name="Path 4489" d="M187.122,192.784c-.624-2.473-1.225-4.969-1.848-7.443,0-.046-4.531,1.063-4.531,1.086.624,2.474,1.225,4.97,1.849,7.443,0,.023,4.53-1.063,4.53-1.086Z" transform="translate(-180.743 -185.34)" fill="#ffbc1f"/>
      </g>
    </g>
    <g id="Group_7740" data-name="Group 7740" transform="translate(110.857 128.601)">
      <g id="Group_7739" data-name="Group 7739">
        <path id="Path_4490" data-name="Path 4490" d="M147.94,180.487c.3,2.335.6,4.669.924,6.981.023.254,4.623-.139,4.646.046-.3-2.335-.6-4.669-.924-6.981-.023-.254-4.623.138-4.646-.046Z" transform="translate(-147.94 -180.445)" fill="#ff8164"/>
      </g>
    </g>
    <g id="Group_7742" data-name="Group 7742" transform="translate(123.417 100.501)">
      <g id="Group_7741" data-name="Group 7741">
        <path id="Path_4491" data-name="Path 4491" d="M168.986,139.279c2.312.671,4.623,1.318,6.957,1.988-.069-.023,0-2.126,0-2.335a12.775,12.775,0,0,0-.046-2.334c-2.311-.67-4.623-1.317-6.957-1.988.069.023,0,2.126,0,2.335a9.662,9.662,0,0,0,.046,2.334Z" transform="translate(-168.893 -134.61)" fill="#ff8164"/>
      </g>
    </g>
    <g id="Group_7744" data-name="Group 7744" transform="translate(128.512 79.104)">
      <g id="Group_7743" data-name="Group 7743">
        <path id="Path_4492" data-name="Path 4492" d="M177.768,92.571c-.2,2.4-.387,4.791-.588,7.212.009-.073,2.086-.416,2.289-.457a12.75,12.75,0,0,0,2.281-.5c.2-2.4.387-4.791.588-7.211-.009.072-2.085.416-2.289.457a9.614,9.614,0,0,0-2.281.5Z" transform="translate(-177.18 -91.612)" fill="#ffbc1f"/>
      </g>
    </g>
    <g id="Group_7745" data-name="Group 7745" transform="translate(244.979 107.816)">
      <path id="Path_4493" data-name="Path 4493" d="M382.538,146.688c-.323,2.635-.624,5.27-.947,7.9.023-.161,4.623.208,4.646,0,.324-2.634.625-5.27.948-7.9-.023.139-4.623-.208-4.646,0Z" transform="translate(-381.591 -146.62)" fill="#fa7697"/>
    </g>
    <g id="Group_7746" data-name="Group 7746" transform="translate(228.283 117.762)">
      <path id="Path_4494" data-name="Path 4494" d="M342.693,162.81c.392,2.15.808,4.322,1.2,6.472a9.8,9.8,0,0,0,2.265.578,11.707,11.707,0,0,1,2.265.531c-.393-2.15-.809-4.322-1.2-6.472a9.792,9.792,0,0,0-2.265-.578,11.24,11.24,0,0,1-2.265-.532Z" transform="translate(-342.693 -162.81)" fill="#fa7697"/>
    </g>
    <g id="Group_7748" data-name="Group 7748" transform="translate(210.35 106.026)">
      <g id="Group_7747" data-name="Group 7747">
        <path id="Path_4495" data-name="Path 4495" d="M317.594,143.7c-1.364,2.2-2.727,4.392-4.091,6.564a21.711,21.711,0,0,1,2.265.509,10.024,10.024,0,0,0,2.289.462c1.364-2.2,2.728-4.391,4.091-6.564a21.915,21.915,0,0,1-2.265-.509,10.059,10.059,0,0,0-2.288-.462Z" transform="translate(-313.503 -143.673)" fill="#3f67f2"/>
      </g>
    </g>
    <g id="Group_7750" data-name="Group 7750" transform="translate(206.334 90.15)">
      <g id="Group_7749" data-name="Group 7749">
        <path id="Path_4496" data-name="Path 4496" d="M307.071,106.873c-.277,2.335-.578,4.67-.855,7-.023.277,4.508,1.086,4.461,1.295.277-2.335.578-4.67.855-7,.046-.277-4.484-1.086-4.461-1.295Z" transform="translate(-306.216 -106.873)" fill="#3f67f2"/>
      </g>
    </g>
    <g id="Group_7752" data-name="Group 7752" transform="translate(186.747 75.602)">
      <g id="Group_7751" data-name="Group 7751">
        <path id="Path_4497" data-name="Path 4497" d="M274.027,88.76a8.309,8.309,0,0,0,2.311,6.981,12.91,12.91,0,0,0,2.127-.971,17.267,17.267,0,0,1,2.1-1.018,8.212,8.212,0,0,1-2.312-6.98,12.235,12.235,0,0,1-2.126.971c-.277.139-2.057.74-2.1,1.017Z" transform="translate(-273.95 -86.773)" fill="#ff8164"/>
      </g>
    </g>
    <g id="Group_7754" data-name="Group 7754" transform="translate(144.409 200.502)">
      <g id="Group_7753" data-name="Group 7753">
        <path id="Path_4498" data-name="Path 4498" d="M203.982,297.785a6.879,6.879,0,0,0,2.173,7.049c.323.278,1.895.093,2.334.093.555.023,1.086.023,1.641.046.115,0,.6-.069.693,0a6.851,6.851,0,0,1-2.173-7.05c-.093.324-4.577-.508-4.669-.138Z" transform="translate(-203.741 -297.688)" fill="#ff8164"/>
      </g>
    </g>
    <g id="Group_7756" data-name="Group 7756" transform="translate(236.126 240.744)">
      <g id="Group_7755" data-name="Group 7755">
        <path id="Path_4499" data-name="Path 4499" d="M356.234,374.1a6.882,6.882,0,0,0,2.173,7.05c.323.277,1.9.092,2.334.092.555.023,1.086.023,1.641.046.116,0,.6-.07.693,0a6.851,6.851,0,0,1-2.173-7.049c-.093.323-4.576-.509-4.669-.139Z" transform="translate(-355.994 -374.005)" fill="#ff8164"/>
      </g>
    </g>
    <g id="Group_7758" data-name="Group 7758" transform="translate(142.183 257.792)">
      <g id="Group_7757" data-name="Group 7757">
        <path id="Path_4500" data-name="Path 4500" d="M200.27,397.663a6.883,6.883,0,0,0,2.27,7.02c.327.273,1.9.067,2.336.06.554.016,1.086.008,1.641.024.115,0,.6-.077.693-.009a6.852,6.852,0,0,1-2.27-7.02c-.088.325-4.583-.446-4.67-.075Z" transform="translate(-200.054 -397.56)" fill="#ff8164"/>
      </g>
    </g>
    <g id="Group_7760" data-name="Group 7760" transform="translate(152.636 57.381)">
      <g id="Group_7759" data-name="Group 7759">
        <path id="Path_4501" data-name="Path 4501" d="M217.368,61.669A5.152,5.152,0,0,0,219,66.947c.242.208,1.419.069,1.747.069.415.017.813.017,1.229.035.086,0,.449-.052.519,0a5.128,5.128,0,0,1-1.626-5.277c-.069.242-3.409-.381-3.5-.1Z" transform="translate(-217.189 -61.597)" fill="#30d6af"/>
      </g>
    </g>
    <g id="Group_7762" data-name="Group 7762" transform="translate(123.091 219.239)">
      <g id="Group_7761" data-name="Group 7761">
        <path id="Path_4502" data-name="Path 4502" d="M171.251,336.661c1.75-1.515,3.533-3.028,5.283-4.543.1-.1-2.862-3.659-2.812-3.708-1.75,1.515-3.533,3.028-5.283,4.543-.116.079,2.845,3.675,2.812,3.708Z" transform="translate(-168.436 -328.41)" fill="#3f67f2"/>
      </g>
    </g>
    <g id="Group_7764" data-name="Group 7764" transform="translate(160.803 226.454)">
      <g id="Group_7763" data-name="Group 7763">
        <path id="Path_4503" data-name="Path 4503" d="M231.065,343.094c1.526,1.133,3.028,2.265,4.554,3.4.231.185,3.19-3.351,3.374-3.213-1.525-1.133-3.027-2.265-4.553-3.4-.254-.185-3.19,3.352-3.375,3.213Z" transform="translate(-231.065 -339.873)" fill="#3f67f2"/>
      </g>
    </g>
    <g id="Group_7766" data-name="Group 7766" transform="translate(239.535 259.478)">
      <g id="Group_7765" data-name="Group 7765">
        <path id="Path_4504" data-name="Path 4504" d="M360.886,401.355c.694.515,1.377,1.03,2.071,1.545.1.084,1.45-1.524,1.534-1.461-.693-.515-1.377-1.031-2.071-1.545-.116-.085-1.45,1.524-1.535,1.461Z" transform="translate(-360.886 -399.891)" fill="#3f67f2"/>
      </g>
    </g>
    <g id="Group_7768" data-name="Group 7768" transform="translate(199.792 210.182)">
      <g id="Group_7767" data-name="Group 7767">
        <path id="Path_4505" data-name="Path 4505" d="M300.61,313.385a6.475,6.475,0,0,1-4.576,5.593,3.157,3.157,0,0,1,.647.185c.531.138,1.063.3,1.594.439l1.6.415c.162.046.509.208.67.162a6.477,6.477,0,0,0,4.577-5.594c.022-.277-4.531-.994-4.507-1.2Z" transform="translate(-296.034 -313.385)" fill="#ff8164"/>
      </g>
    </g>
    <g id="Group_7770" data-name="Group 7770" transform="translate(261.673 152.024)">
      <g id="Group_7769" data-name="Group 7769">
        <path id="Path_4506" data-name="Path 4506" d="M404.656,221.658a9.175,9.175,0,0,0,7.072,1.179c.509-.116,1.295-1.272,1.665-1.618.393-.392.786-.786,1.156-1.178.092-.093.347-.462.462-.486a9.175,9.175,0,0,1-7.072-1.179c-.324-.208-3.028,3.444-3.282,3.282Z" transform="translate(-404.656 -218.367)" fill="#ff8164"/>
      </g>
    </g>
    <g id="Group_7772" data-name="Group 7772" transform="translate(237.814 210.787)">
      <g id="Group_7771" data-name="Group 7771">
        <path id="Path_4507" data-name="Path 4507" d="M371.691,316.1c1.387,1.248,2.8,2.5,4.183,3.721a9.849,9.849,0,0,0,2.126-.947,11.943,11.943,0,0,1,2.1-.971c-1.387-1.248-2.8-2.5-4.184-3.721a9.852,9.852,0,0,0-2.126.947,11.854,11.854,0,0,1-2.1.971Z" transform="translate(-371.691 -314.175)" fill="#ffbc1f"/>
      </g>
    </g>
    <g id="Group_7774" data-name="Group 7774" transform="translate(235.622 205.436)">
      <g id="Group_7773" data-name="Group 7773">
        <path id="Path_4508" data-name="Path 4508" d="M355.362,308.815a5.878,5.878,0,0,0,4.484,4.276,6.558,6.558,0,0,0,.531-.439c.416-.37.832-.717,1.248-1.086s.832-.717,1.225-1.087c.069-.069.439-.485.508-.462a5.914,5.914,0,0,1-4.484-4.277,13.14,13.14,0,0,1-1.757,1.526c-.208.162-1.8,1.318-1.757,1.549Z" transform="translate(-355.361 -305.741)" fill="#30d6af"/>
      </g>
    </g>
    <g id="Group_7776" data-name="Group 7776" transform="translate(57.996 130.543)">
      <g id="Group_7775" data-name="Group 7775">
        <path id="Path_4509" data-name="Path 4509" d="M59.325,184.964a3.121,3.121,0,0,0,2.38,2.27,3.575,3.575,0,0,0,.282-.233c.221-.2.442-.381.663-.577s.441-.381.651-.577c.037-.037.233-.258.27-.245a3.139,3.139,0,0,1-2.381-2.27,7.04,7.04,0,0,1-.932.81c-.111.086-.97.7-.933.822Z" transform="translate(-59.323 -183.332)" fill="#ffbc1f"/>
      </g>
    </g>
    <g id="Group_7778" data-name="Group 7778" transform="translate(265.458 182.42)">
      <g id="Group_7777" data-name="Group 7777">
        <path id="Path_4510" data-name="Path 4510" d="M412.8,268.392a5.678,5.678,0,0,1-2.912,6.588c.208-.116,1.826.878,2.1,1.017.3.139,1.8,1.11,2.126.971a5.65,5.65,0,0,0,2.912-6.588c-.093-.3-1.8-.855-2.1-1.017-.509-.231-.994-.462-1.5-.693a4.1,4.1,0,0,1-.624-.277Z" transform="translate(-409.887 -268.392)" fill="#ff8164"/>
      </g>
    </g>
    <g id="Group_7780" data-name="Group 7780" transform="translate(285.812 176.78)">
      <g id="Group_7779" data-name="Group 7779">
        <path id="Path_4511" data-name="Path 4511" d="M440.151,258.877a4.174,4.174,0,0,1-2.142,4.843c.153-.085,1.343.646,1.547.748.221.1,1.325.816,1.563.714a4.154,4.154,0,0,0,2.141-4.843c-.067-.221-1.325-.628-1.546-.748-.374-.17-.731-.339-1.105-.51a3.04,3.04,0,0,1-.458-.2Z" transform="translate(-438.009 -258.877)" fill="#ff8164"/>
      </g>
    </g>
    <g id="Group_7782" data-name="Group 7782" transform="translate(237.329 272.486)">
      <g id="Group_7781" data-name="Group 7781">
        <path id="Path_4512" data-name="Path 4512" d="M357.379,420.472a2.938,2.938,0,0,1,3.612.923,4.752,4.752,0,0,1,.339-1.161c.045-.165.412-1.015.313-1.169a2.925,2.925,0,0,0-3.612-.923c-.145.073-.282.994-.339,1.161-.075.279-.151.546-.225.826a2.105,2.105,0,0,1-.088.342Z" transform="translate(-357.379 -417.863)" fill="#ff8164"/>
      </g>
    </g>
    <g id="Group_7784" data-name="Group 7784" transform="translate(216.482 276.333)">
      <g id="Group_7783" data-name="Group 7783">
        <path id="Path_4513" data-name="Path 4513" d="M324.342,423.178a3.049,3.049,0,0,1-1.564,3.538c.111-.062.981.472,1.13.546s.968.6,1.142.521a3.035,3.035,0,0,0,1.564-3.538c-.049-.161-.968-.459-1.13-.546-.273-.125-.533-.248-.807-.373a2.227,2.227,0,0,1-.335-.149Z" transform="translate(-322.778 -423.178)" fill="#ff8164"/>
      </g>
    </g>
    <g id="Group_7786" data-name="Group 7786" transform="translate(225.572 236.813)">
      <g id="Group_7785" data-name="Group 7785">
        <path id="Path_4514" data-name="Path 4514" d="M338.638,364.749a6.332,6.332,0,0,0,5.639-3.143c.231-.393-.139-1.849-.161-2.312-.046-.554-.093-1.086-.139-1.641-.023-.139-.139-.578-.069-.67a6.286,6.286,0,0,1-5.639,3.143c.115,0,.185,4.623.37,4.623Z" transform="translate(-338.268 -356.983)" fill="#30d6af"/>
      </g>
    </g>
    <g id="Group_7788" data-name="Group 7788" transform="translate(68.141 202.401)">
      <g id="Group_7787" data-name="Group 7787">
        <path id="Path_4515" data-name="Path 4515" d="M73.341,302.2c.6,1.711,1.225,3.421,1.826,5.131.023.046,4.415-1.5,4.392-1.525-.6-1.711-1.225-3.421-1.826-5.131,0-.046-4.392,1.5-4.392,1.525Z" transform="translate(-73.341 -300.679)" fill="#ff8164"/>
      </g>
    </g>
    <g id="Group_7790" data-name="Group 7790" transform="translate(98.272 213.048)">
      <g id="Group_7789" data-name="Group 7789">
        <path id="Path_4516" data-name="Path 4516" d="M127.194,322.466a5.9,5.9,0,0,0,5.732,2.612c.208-.023.74-1.942.832-2.173a11.513,11.513,0,0,1,.785-2.2,5.877,5.877,0,0,1-5.732-2.612,10.658,10.658,0,0,1-.832,2.173c-.116.3-.971,1.919-.786,2.2Z" transform="translate(-127.168 -318.097)" fill="#3f67f2"/>
      </g>
    </g>
    <g id="Group_7792" data-name="Group 7792" transform="translate(164.975 95.523)">
      <g id="Group_7791" data-name="Group 7791">
        <path id="Path_4517" data-name="Path 4517" d="M237.861,131.153c2.034.9,4.068,1.78,6.1,2.681-.069-.023.232-2.126.232-2.311a10.332,10.332,0,0,0,.185-2.312c-2.034-.9-4.067-1.78-6.1-2.681.069.023-.231,2.126-.231,2.312a11.963,11.963,0,0,0-.185,2.312Z" transform="translate(-237.818 -126.53)" fill="#30d6af"/>
      </g>
    </g>
    <g id="Group_7794" data-name="Group 7794" transform="translate(86.143 103.373)">
      <g id="Group_7793" data-name="Group 7793">
        <path id="Path_4518" data-name="Path 4518" d="M100.081,139.209a3.091,3.091,0,0,1-1.867,3.812c.17-.062,1.173.633,1.374.74l.972.51c.062.03.339.231.4.2a3.071,3.071,0,0,0,1.867-3.812c-.077-.231-1.141-.617-1.373-.74l-.972-.51a1.923,1.923,0,0,1-.4-.2Z" transform="translate(-98.214 -139.209)" fill="#ff8164"/>
      </g>
    </g>
    <g id="Group_7796" data-name="Group 7796" transform="translate(67.163 114.433)">
      <g id="Group_7795" data-name="Group 7795">
        <path id="Path_4519" data-name="Path 4519" d="M72,160.084l3.472,3.055c-.031-.03.6-1.3.664-1.4a7.9,7.9,0,0,0,.633-1.42l-3.472-3.055c.03.03-.6,1.3-.664,1.4a7.456,7.456,0,0,0-.633,1.42Z" transform="translate(-71.99 -157.26)" fill="#ffbc1f"/>
      </g>
    </g>
    <g id="Group_7798" data-name="Group 7798" transform="translate(186.552 234.561)">
      <g id="Group_7797" data-name="Group 7797">
        <path id="Path_4520" data-name="Path 4520" d="M277.268,353.354a9.22,9.22,0,0,1-3.421,7.258c.208-.185,1.988.324,2.289.37.531.092,1.086.161,1.618.254.116.023.6.162.67.093a9.217,9.217,0,0,0,3.421-7.258c.023-.278-4.576-.509-4.576-.717Z" transform="translate(-273.847 -353.354)" fill="#ff8164"/>
      </g>
    </g>
    <g id="Group_7800" data-name="Group 7800" transform="translate(77.366 106.307)">
      <g id="Group_7799" data-name="Group 7799">
        <path id="Path_4521" data-name="Path 4521" d="M86.087,145.779c.955.472,1.911.943,2.854,1.415.142.071,1.309-1.958,1.416-1.911-.955-.472-1.911-.943-2.854-1.415-.141-.059-1.309,1.969-1.415,1.911Z" transform="translate(-86.087 -143.867)" fill="#30d6af"/>
      </g>
    </g>
    <g id="Group_7802" data-name="Group 7802" transform="translate(84.797 120.071)">
      <g id="Group_7801" data-name="Group 7801">
        <path id="Path_4522" data-name="Path 4522" d="M96.355,169.14c1.45.308,2.9.617,4.352.91.231.046,1.065-2.886,1.25-2.854-1.45-.308-2.9-.617-4.352-.91-.232-.046-1.065,2.9-1.25,2.855Z" transform="translate(-96.355 -166.284)" fill="#ff8164"/>
      </g>
    </g>
    <g id="Group_7804" data-name="Group 7804" transform="translate(108.241 240.052)">
      <g id="Group_7803" data-name="Group 7803">
        <path id="Path_4523" data-name="Path 4523" d="M145.239,361.756c-.532,1.526-1.063,3.051-1.6,4.6.023-.046,2.126.255,2.312.255a12.1,12.1,0,0,0,2.311.208c.532-1.526,1.064-3.051,1.6-4.6-.023.046-2.126-.254-2.312-.254a17.765,17.765,0,0,0-2.311-.208Z" transform="translate(-143.644 -361.731)" fill="#30d6af"/>
      </g>
    </g>
    <g id="Group_7806" data-name="Group 7806" transform="translate(237.447 86.257)">
      <g id="Group_7805" data-name="Group 7805">
        <path id="Path_4524" data-name="Path 4524" d="M357.523,102.923a4.979,4.979,0,0,0,2.088,3.469,5.858,5.858,0,0,0,.984-.708,8.663,8.663,0,0,1,.973-.72,4.957,4.957,0,0,1-2.089-3.469,6.675,6.675,0,0,1-.984.708c-.12.085-.984.588-.972.72Z" transform="translate(-357.523 -101.495)" fill="#30d6af"/>
      </g>
    </g>
    <g id="Group_7807" data-name="Group 7807" transform="translate(182.475 122.297)">
      <path id="Path_4525" data-name="Path 4525" d="M267.03,174.235a6.766,6.766,0,0,0,5.224,4.6,11.972,11.972,0,0,0,1.248-1.965,14.1,14.1,0,0,1,1.225-1.987,6.876,6.876,0,0,1-5.224-4.6c.069.232-1.109,1.711-1.248,1.965-.3.462-.578.924-.879,1.387-.069.116-.37.509-.347.6Z" transform="translate(-267.028 -170.283)" fill="#fa7697"/>
    </g>
    <g id="Group_7809" data-name="Group 7809" transform="translate(144.726 143.174)">
      <g id="Group_7808" data-name="Group 7808">
        <path id="Path_4526" data-name="Path 4526" d="M206.126,204.819c-.647,2.057-1.271,4.115-1.918,6.171a13.048,13.048,0,0,1,2.311-.3c.255-.046,2.242-.139,2.312-.347.647-2.058,1.272-4.115,1.919-6.171a13.115,13.115,0,0,1-2.312.3c-.254.023-2.265.139-2.312.347Z" transform="translate(-204.208 -204.172)" fill="#ff8164"/>
      </g>
    </g>
    <g id="Group_7811" data-name="Group 7811" transform="translate(72.012 158.753)">
      <g id="Group_7810" data-name="Group 7810">
        <path id="Path_4527" data-name="Path 4527" d="M78.69,233.055c1.8,1.757,3.606,3.536,5.409,5.293.046.046,3.305-3.26,3.305-3.282-1.8-1.757-3.606-3.537-5.409-5.294-.046-.046-3.305,3.259-3.305,3.282Z" transform="translate(-78.69 -229.772)" fill="#3f67f2"/>
      </g>
    </g>
    <g id="Group_7813" data-name="Group 7813" transform="translate(252.624 151.195)">
      <g id="Group_7812" data-name="Group 7812">
        <path id="Path_4528" data-name="Path 4528" d="M394.91,219.556c-.3-.785-.624-1.548-.924-2.334a4.175,4.175,0,0,1-.277.624c-.232.509-.439,1.017-.648,1.5-.208.509-.439,1.017-.647,1.526-.046.115-.3.531-.254.624.3.786.624,1.549.924,2.335a4.147,4.147,0,0,1,.277-.625c.232-.508.439-1.017.648-1.5.208-.509.439-1.018.647-1.526.069-.116.3-.532.254-.625Z" transform="translate(-392.154 -217.222)" fill="#ff8164"/>
      </g>
    </g>
    <g id="Group_7815" data-name="Group 7815" transform="translate(234.986 146.462)">
      <g id="Group_7814" data-name="Group 7814">
        <path id="Path_4529" data-name="Path 4529" d="M373.346,215.87c-.441-2.075-.872-4.129-1.314-6.2.051.287-4.313,1.55-4.249,1.91.441,2.074.872,4.128,1.313,6.2-.071-.277,4.314-1.55,4.25-1.91Z" transform="translate(-367.783 -209.667)" fill="#ff8164"/>
      </g>
    </g>
    <g id="Group_7817" data-name="Group 7817" transform="translate(141.923 236.531)">
      <g id="Group_7816" data-name="Group 7816">
        <path id="Path_4530" data-name="Path 4530" d="M199.56,359.3c2.011.3,4.045.6,6.056.925.022,0,.554-3.444.508-3.444-2.011-.3-4.045-.6-6.056-.924,0,0-.532,3.444-.509,3.444Z" transform="translate(-199.559 -355.852)" fill="#ff8164"/>
      </g>
    </g>
    <g id="Group_7819" data-name="Group 7819" transform="translate(121.189 238.054)">
      <g id="Group_7818" data-name="Group 7818">
        <path id="Path_4531" data-name="Path 4531" d="M168.391,377.088c.516-1.966,1.034-3.956,1.573-5.92,0-.023-3.364-.924-3.369-.877-.515,1.966-1.034,3.956-1.572,5.92,0,0,3.366.9,3.368.877Z" transform="translate(-165.023 -370.289)" fill="#ff8164"/>
      </g>
    </g>
    <g id="Group_7821" data-name="Group 7821" transform="translate(133.225 250.614)">
      <g id="Group_7820" data-name="Group 7820">
        <path id="Path_4532" data-name="Path 4532" d="M184.9,391.016h3.259a9.9,9.9,0,0,0,.439-1.687,12.962,12.962,0,0,1,.415-1.687H185.75a9.972,9.972,0,0,0-.439,1.687c-.046.116-.37,1.687-.416,1.687Z" transform="translate(-184.895 -387.642)" fill="#3f67f2"/>
      </g>
    </g>
    <g id="Group_7823" data-name="Group 7823" transform="translate(209.473 240.313)">
      <g id="Group_7822" data-name="Group 7822">
        <path id="Path_4533" data-name="Path 4533" d="M312.579,362.349a5.292,5.292,0,0,1-1.248,5.155,9.285,9.285,0,0,1,1.687.462c.185.046,1.572.578,1.688.439a5.344,5.344,0,0,0,1.248-5.155,6.619,6.619,0,0,0-1.687-.462,9.95,9.95,0,0,1-1.687-.439Z" transform="translate(-311.331 -362.349)" fill="#3f67f2"/>
      </g>
    </g>
    <g id="Group_7824" data-name="Group 7824" transform="translate(99.795 261.756)">
      <path id="Path_4534" data-name="Path 4534" d="M129.6,403.037c.717,1.433,1.433,2.843,2.15,4.276a6.816,6.816,0,0,0,1.733.185,8.011,8.011,0,0,1,1.733.138c-.717-1.433-1.433-2.843-2.15-4.276a6.746,6.746,0,0,0-1.733-.185,8.223,8.223,0,0,1-1.733-.138Z" transform="translate(-129.599 -403.037)" fill="#fa7697"/>
    </g>
    <g id="Group_7826" data-name="Group 7826" transform="translate(84.274 221.792)">
      <g id="Group_7825" data-name="Group 7825">
        <path id="Path_4535" data-name="Path 4535" d="M95.632,333.183c.74,1.109,1.5,2.219,2.242,3.305a10.588,10.588,0,0,0,1.641-.625c.138-.046,1.594-.693,1.618-.647-.74-1.11-1.5-2.219-2.241-3.305a10.588,10.588,0,0,0-1.641.625c-.116.046-1.6.693-1.618.647Z" transform="translate(-95.632 -331.906)" fill="#30d6af"/>
      </g>
    </g>
    <g id="Group_7828" data-name="Group 7828" transform="translate(124.764 203.177)">
      <g id="Group_7827" data-name="Group 7827">
        <path id="Path_4536" data-name="Path 4536" d="M171.138,305.17a5.976,5.976,0,0,0,6.056,1.41,7.639,7.639,0,0,0,.254-1.733,7.9,7.9,0,0,1,.231-1.733,5.976,5.976,0,0,1-6.056-1.41,8.259,8.259,0,0,1-.254,1.733c-.046.231-.416,1.549-.232,1.733Z" transform="translate(-171.087 -301.703)" fill="#ffbc1f"/>
      </g>
    </g>
    <g id="Group_7829" data-name="Group 7829" transform="translate(162.44 205.193)">
      <path id="Path_4537" data-name="Path 4537" d="M233.482,308.338l5.131.832c-.093-.023.347-3.467.208-3.49l-5.131-.832c.093,0-.347,3.467-.208,3.491Z" transform="translate(-233.454 -304.847)" fill="#fa7697"/>
    </g>
    <g id="Group_7831" data-name="Group 7831" transform="translate(193.346 220.768)">
      <g id="Group_7830" data-name="Group 7830">
        <path id="Path_4538" data-name="Path 4538" d="M284.61,333.536h4.646c.115,0,.185-3.491.231-3.491h-4.646c-.093,0-.162,3.491-.232,3.491Z" transform="translate(-284.61 -330.045)" fill="#30d6af"/>
      </g>
    </g>
    <g id="Group_7832" data-name="Group 7832" transform="translate(178.58 61.851)">
      <path id="Path_4539" data-name="Path 4539" d="M260.137,71.263h4.646c.116,0,.185-3.49.232-3.49h-4.646c-.092,0-.185,3.49-.231,3.49Z" transform="translate(-260.137 -67.773)" fill="#fa7697"/>
    </g>
    <g id="Group_7833" data-name="Group 7833" transform="translate(170.646 77.359)">
      <path id="Path_4540" data-name="Path 4540" d="M246.987,92.691h4.646c.115,0,.185-3.491.231-3.491h-4.646c-.093,0-.185,3.491-.231,3.491Z" transform="translate(-246.987 -89.2)" fill="#fa7697"/>
    </g>
    <g id="Group_7835" data-name="Group 7835" transform="translate(235.364 128.721)">
      <g id="Group_7834" data-name="Group 7834">
        <path id="Path_4541" data-name="Path 4541" d="M368.3,183.2c1.526.532,3.074,1.04,4.6,1.572a12,12,0,0,0,1.04-1.387,16.086,16.086,0,0,1,1.017-1.41c-1.526-.532-3.074-1.04-4.6-1.572a11.978,11.978,0,0,0-1.04,1.387c-.093.093-.948,1.433-1.018,1.41Z" transform="translate(-368.305 -180.407)" fill="#30d6af"/>
      </g>
    </g>
    <g id="Group_7837" data-name="Group 7837" transform="translate(141.858 101.931)">
      <g id="Group_7836" data-name="Group 7836">
        <path id="Path_4542" data-name="Path 4542" d="M199.489,140.26a5.464,5.464,0,0,0,5.617,3.12,7.829,7.829,0,0,0,.554-1.664,8.852,8.852,0,0,1,.509-1.664,5.484,5.484,0,0,1-5.617-3.121c.116.232-.462,1.41-.554,1.664-.093.3-.647,1.364-.509,1.665Z" transform="translate(-199.467 -136.931)" fill="#3f67f2"/>
      </g>
    </g>
    <g id="Group_7839" data-name="Group 7839" transform="translate(81.616 198.849)">
      <g id="Group_7838" data-name="Group 7838">
        <path id="Path_4543" data-name="Path 4543" d="M91.96,299.272c2.034-.416,4.068-.809,6.079-1.225.393-.092.139-3.374.486-3.467-2.034.416-4.068.809-6.079,1.225-.393.093-.139,3.4-.486,3.467Z" transform="translate(-91.96 -294.58)" fill="#ff8164"/>
      </g>
    </g>
    <g id="Group_7841" data-name="Group 7841" transform="translate(112.159 212.138)">
      <g id="Group_7840" data-name="Group 7840">
        <path id="Path_4544" data-name="Path 4544" d="M150.083,318.791c.9,1.271,1.8,2.519,2.7,3.79-.069-.092,2.681-2.219,2.588-2.334-.9-1.272-1.8-2.519-2.7-3.791.069.069-2.681,2.2-2.589,2.335Z" transform="translate(-150.081 -316.456)" fill="#ff8164"/>
      </g>
    </g>
    <g id="Group_7843" data-name="Group 7843" transform="translate(253.716 181.592)">
      <g id="Group_7842" data-name="Group 7842">
        <path id="Path_4545" data-name="Path 4545" d="M393.877,268.94a3.208,3.208,0,0,0,3.051,4.3c.347-.023,1.11-.855,1.364-1.086.324-.255.647-.509.947-.786.069-.069.3-.324.393-.324a3.216,3.216,0,0,1-3.051-4.3,1.567,1.567,0,0,1-.416.3l-.971.762c-.323.255-.648.509-.948.786-.069.093-.324.232-.37.347Z" transform="translate(-393.663 -266.744)" fill="#ff8164"/>
      </g>
    </g>
    <g id="Group_7845" data-name="Group 7845" transform="translate(230.125 218.37)">
      <g id="Group_7844" data-name="Group 7844">
        <path id="Path_4546" data-name="Path 4546" d="M345.66,329.662c1.71,0,3.42-.023,5.131-.023.093,0,.138-3.49.185-3.49-1.71,0-3.42.023-5.131.023-.092,0-.138,3.49-.185,3.49Z" transform="translate(-345.66 -326.149)" fill="#ff8164"/>
      </g>
    </g>
    <g id="Group_7847" data-name="Group 7847" transform="translate(239.773 232.143)">
      <g id="Group_7846" data-name="Group 7846">
        <path id="Path_4547" data-name="Path 4547" d="M362.291,348.873c-.277,1.411-.554,2.8-.855,4.207,0-.046,1.594-.069,1.733-.069a10.036,10.036,0,0,0,1.733-.093c.277-1.41.555-2.8.855-4.206,0,.046-1.6.07-1.733.07a8.308,8.308,0,0,0-1.734.092Z" transform="translate(-361.436 -348.712)" fill="#ff8164"/>
      </g>
    </g>
    <g id="Group_7849" data-name="Group 7849" transform="translate(284.911 207.573)">
      <g id="Group_7848" data-name="Group 7848">
        <path id="Path_4548" data-name="Path 4548" d="M437.192,308.45c-.138.706-.277,1.4-.428,2.1,0-.023.8-.035.867-.035a5.022,5.022,0,0,0,.867-.046c.138-.7.277-1.4.427-2.1,0,.023-.8.035-.866.035a4.182,4.182,0,0,0-.867.046Z" transform="translate(-436.764 -308.37)" fill="#ff8164"/>
      </g>
    </g>
    <g id="Group_7851" data-name="Group 7851" transform="translate(271.704 199.155)">
      <g id="Group_7850" data-name="Group 7850">
        <path id="Path_4549" data-name="Path 4549" d="M419.133,294.957c-.2,1.018-.4,2.019-.617,3.038,0-.034,1.151-.05,1.251-.05a7.206,7.206,0,0,0,1.252-.067c.2-1.018.4-2.019.617-3.037,0,.033-1.151.05-1.252.05a5.982,5.982,0,0,0-1.251.067Z" transform="translate(-418.516 -294.84)" fill="#ff8164"/>
      </g>
    </g>
    <g id="Group_7853" data-name="Group 7853" transform="translate(157.148 279.854)">
      <g id="Group_7852" data-name="Group 7852">
        <path id="Path_4550" data-name="Path 4550" d="M224.717,428.124c-.139.7-.278,1.4-.428,2.1,0-.023.8-.034.867-.034a5.018,5.018,0,0,0,.866-.046c.139-.7.277-1.4.428-2.1,0,.023-.8.035-.867.035a4.124,4.124,0,0,0-.866.046Z" transform="translate(-224.289 -428.043)" fill="#ff8164"/>
      </g>
    </g>
    <g id="Group_7855" data-name="Group 7855" transform="translate(113.115 258.041)">
      <g id="Group_7854" data-name="Group 7854">
        <path id="Path_4551" data-name="Path 4551" d="M151.47,399.516c.584.419,1.157.833,1.736,1.262-.021-.009.3-.74.329-.8a5.073,5.073,0,0,0,.318-.808c-.584-.418-1.157-.832-1.736-1.262.021.01-.3.74-.328.8a4.12,4.12,0,0,0-.318.808Z" transform="translate(-151.466 -397.905)" fill="#ff8164"/>
      </g>
    </g>
    <g id="Group_7857" data-name="Group 7857" transform="translate(104.587 246.75)">
      <g id="Group_7856" data-name="Group 7856">
        <path id="Path_4552" data-name="Path 4552" d="M123.7,382.744c.011.719.02,1.426.02,2.147-.005-.023.772-.2.84-.215a5.05,5.05,0,0,0,.838-.225c-.011-.719-.02-1.426-.02-2.147.005.022-.773.2-.84.214a4.151,4.151,0,0,0-.838.226Z" transform="translate(-123.698 -382.304)" fill="#ff8164"/>
      </g>
    </g>
    <g id="Group_7859" data-name="Group 7859" transform="translate(54.518 198.112)">
      <g id="Group_7858" data-name="Group 7858">
        <path id="Path_4553" data-name="Path 4553" d="M54.524,295.609c.839.6,1.662,1.2,2.494,1.813-.03-.014.431-1.062.472-1.153a7.3,7.3,0,0,0,.457-1.161c-.839-.6-1.662-1.2-2.494-1.814.03.014-.431,1.063-.472,1.154a5.93,5.93,0,0,0-.457,1.161Z" transform="translate(-54.518 -293.294)" fill="#ff8164"/>
      </g>
    </g>
    <g id="Group_7861" data-name="Group 7861" transform="translate(271.703 98.886)">
      <g id="Group_7860" data-name="Group 7860">
        <path id="Path_4554" data-name="Path 4554" d="M418.515,120.39c.794.751,1.6,1.5,2.4,2.253.058.058,1.6-1.474,1.632-1.445-.795-.751-1.6-1.5-2.4-2.253-.058-.058-1.589,1.473-1.632,1.445Z" transform="translate(-418.515 -118.944)" fill="#30d6af"/>
      </g>
    </g>
    <g id="Group_7863" data-name="Group 7863" transform="translate(272.59 110.711)">
      <g id="Group_7862" data-name="Group 7862">
        <path id="Path_4555" data-name="Path 4555" d="M420.017,154.568a3.526,3.526,0,0,0,4.16.509,9.193,9.193,0,0,0-.115-1.733,9.661,9.661,0,0,1-.162-1.734,3.526,3.526,0,0,1-4.16-.508,4.412,4.412,0,0,1,.022.508c.023.416.069.832.093,1.225.023.416.069.832.093,1.225.023.092,0,.462.069.508Z" transform="translate(-419.74 -151.101)" fill="#ff8164"/>
      </g>
    </g>
    <g id="Group_7865" data-name="Group 7865" transform="translate(103.304 82.329)">
      <g id="Group_7864" data-name="Group 7864">
        <path id="Path_4556" data-name="Path 4556" d="M135.629,99.534a3.527,3.527,0,0,0,4.161.509,9.258,9.258,0,0,0-.116-1.733,9.733,9.733,0,0,1-.162-1.734,3.526,3.526,0,0,1-4.16-.508,4.277,4.277,0,0,1,.023.508c.023.416.069.832.092,1.225.023.416.069.832.093,1.225.023.092,0,.439.069.508Z" transform="translate(-135.352 -96.067)" fill="#ff8164"/>
      </g>
    </g>
    <g id="Group_7867" data-name="Group 7867" transform="translate(135.435 211.878)">
      <g id="Group_7866" data-name="Group 7866">
        <path id="Path_4557" data-name="Path 4557" d="M188.823,319.466a2.976,2.976,0,0,0,3.745,2.658c.115-.023.439-.462.462-.485.37-.393.74-.809,1.109-1.2.37-.416.74-.809,1.11-1.225.093-.115.324-.485.439-.508a2.977,2.977,0,0,1-3.745-2.658,4.8,4.8,0,0,1-.462.486c-.369.393-.739.808-1.109,1.2-.37.416-.74.809-1.11,1.225-.069.069-.439.393-.439.509Z" transform="translate(-188.823 -316.045)" fill="#ff8164"/>
      </g>
    </g>
    <g id="Group_7869" data-name="Group 7869" transform="translate(107.658 200.296)">
      <g id="Group_7868" data-name="Group 7868">
        <path id="Path_4558" data-name="Path 4558" d="M142.776,301.861c2.034.6,4.045,1.2,6.079,1.8-.277-.093.693-4.53.347-4.646-2.034-.6-4.045-1.2-6.079-1.8.277.093-.693,4.553-.347,4.646Z" transform="translate(-142.7 -297.215)" fill="#ff8164"/>
      </g>
    </g>
    <g id="Group_7871" data-name="Group 7871" transform="translate(160.648 140.021)">
      <g id="Group_7870" data-name="Group 7870">
        <path id="Path_4559" data-name="Path 4559" d="M230.643,202.268a3.527,3.527,0,0,0,4.161.508,9.267,9.267,0,0,0-.116-1.733,9.72,9.72,0,0,1-.162-1.733,3.527,3.527,0,0,1-4.16-.508,4.268,4.268,0,0,1,.023.508c.023.416.069.832.093,1.225.022.415.069.832.092,1.225.023.093,0,.462.069.509Z" transform="translate(-230.366 -198.801)" fill="#ff8164"/>
      </g>
    </g>
    <g id="Group_7873" data-name="Group 7873" transform="translate(240.738 106.085)">
      <g id="Group_7872" data-name="Group 7872">
        <path id="Path_4560" data-name="Path 4560" d="M363.6,146.747a5.182,5.182,0,0,0,5.085,3.791c.185,0,.786-1.34.878-1.5s.694-1.526.855-1.526a5.131,5.131,0,0,1-5.085-3.79c.069.231-.763,1.294-.879,1.5-.138.254-.924,1.225-.855,1.525Z" transform="translate(-363.592 -143.72)" fill="#30d6af"/>
      </g>
    </g>
    <g id="Group_7875" data-name="Group 7875" transform="translate(227.966 104.644)">
      <g id="Group_7874" data-name="Group 7874">
        <path id="Path_4561" data-name="Path 4561" d="M342.07,143.46a5.741,5.741,0,0,0,2.474,4.461,9.966,9.966,0,0,0,1.41-1.04,12.377,12.377,0,0,1,1.387-1.063,5.711,5.711,0,0,1-2.473-4.461c0,.162-1.248.924-1.41,1.04-.185.139-1.387.832-1.387,1.063Z" transform="translate(-342.07 -141.357)" fill="#30d6af"/>
      </g>
    </g>
    <g id="Group_7877" data-name="Group 7877" transform="translate(249.925 97.013)">
      <g id="Group_7876" data-name="Group 7876">
        <path id="Path_4562" data-name="Path 4562" d="M388.425,128.926v6.056c0,.231,3.444.439,3.444.624V129.55c0-.232-3.444-.439-3.444-.624Z" transform="translate(-388.425 -128.926)" fill="#ff8164"/>
      </g>
    </g>
    <g id="Group_7879" data-name="Group 7879" transform="translate(60.12 155.978)">
      <g id="Group_7878" data-name="Group 7878">
        <path id="Path_4563" data-name="Path 4563" d="M63.183,225.109c-.3,2.335-.624,4.646-.924,6.981,0-.069,3.467.3,3.491.161.3-2.334.624-4.646.924-6.98-.023.069-3.491-.278-3.491-.162Z" transform="translate(-62.259 -225.085)" fill="#ff8164"/>
      </g>
    </g>
    <g id="Group_7880" data-name="Group 7880" transform="translate(73.639 179.124)">
      <path id="Path_4564" data-name="Path 4564" d="M80.975,266.062c1.733.693,3.467,1.41,5.223,2.1a15.852,15.852,0,0,1,.093-1.733,9.03,9.03,0,0,0,.069-1.733c-1.733-.694-3.467-1.41-5.224-2.1a15.861,15.861,0,0,1-.092,1.734,9.026,9.026,0,0,0-.069,1.733Z" transform="translate(-80.937 -262.595)" fill="#fa7697"/>
    </g>
    <g id="Group_7882" data-name="Group 7882" transform="translate(86.55 238.934)">
      <g id="Group_7881" data-name="Group 7881">
        <path id="Path_4565" data-name="Path 4565" d="M98.776,373.123c1.1-.011,2.208-.033,3.3-.043.186,0,.339-1.574.5-1.574-1.1.011-2.208.033-3.3.043-.186,0-.339,1.574-.5,1.574Z" transform="translate(-98.776 -371.505)" fill="#ff8164"/>
      </g>
    </g>
    <g id="Group_7884" data-name="Group 7884" transform="translate(97.223 237.293)">
      <g id="Group_7883" data-name="Group 7883">
        <path id="Path_4566" data-name="Path 4566" d="M113.524,357.488c.6,1.71,1.2,3.42,1.8,5.154.069.208,1.41.532,1.618.625.232.093,1.572.37,1.641.6-.6-1.71-1.2-3.42-1.8-5.155-.069-.208-1.41-.531-1.618-.624-.231-.093-1.571-.37-1.641-.6Z" transform="translate(-113.524 -357.488)" fill="#30d6af"/>
      </g>
    </g>
    <g id="Group_7886" data-name="Group 7886" transform="translate(67.255 221.718)">
      <g id="Group_7885" data-name="Group 7885">
        <path id="Path_4567" data-name="Path 4567" d="M72.117,332c.546,1.553,1.091,3.106,1.637,4.68.063.189,1.281.483,1.469.567.21.084,1.428.336,1.49.546-.546-1.553-1.091-3.106-1.636-4.68-.064-.189-1.281-.483-1.47-.567s-1.406-.336-1.49-.546Z" transform="translate(-72.117 -332.004)" fill="#ffbc1f"/>
      </g>
    </g>
    <g id="Group_7888" data-name="Group 7888" transform="translate(259.982 137.578)">
      <g id="Group_7887" data-name="Group 7887">
        <path id="Path_4568" data-name="Path 4568" d="M402.384,200.022c4.53-.069,9.037-.162,13.567-.232.255,0-.046-4.9.046-4.9-4.53.069-9.037.161-13.568.231-.254,0,.023,4.9-.046,4.9Z" transform="translate(-402.32 -194.891)" fill="#3f67f2"/>
      </g>
    </g>
    <g id="Group_7890" data-name="Group 7890" transform="translate(273.718 121.586)">
      <g id="Group_7889" data-name="Group 7889">
        <path id="Path_4569" data-name="Path 4569" d="M425.034,169.13l-3.735,6.334c.127-.2,4.908,2.291,5.071,2.021l3.735-6.334c-.126.2-4.926-2.291-5.07-2.021Z" transform="translate(-421.299 -169.11)" fill="#3f67f2"/>
      </g>
    </g>
    <g id="Group_7891" data-name="Group 7891" transform="translate(209.595 131.923)">
      <path id="Path_4570" data-name="Path 4570" d="M312.086,188.821a9.594,9.594,0,0,0,4.022,6.68,11.336,11.336,0,0,0,1.9-1.364,16.887,16.887,0,0,1,1.872-1.387,9.545,9.545,0,0,1-4.022-6.68,12.932,12.932,0,0,1-1.9,1.364c-.208.161-1.9,1.133-1.872,1.387Z" transform="translate(-312.086 -186.07)" fill="#fa7697"/>
    </g>
    <g id="Group_7892" data-name="Group 7892" transform="translate(199.468 261.402)">
      <path id="Path_4571" data-name="Path 4571" d="M295.266,405.3a9.591,9.591,0,0,0,4.022,6.679,11.287,11.287,0,0,0,1.9-1.364,16.8,16.8,0,0,1,1.872-1.387,9.545,9.545,0,0,1-4.022-6.68,12.875,12.875,0,0,1-1.9,1.364c-.208.162-1.9,1.133-1.872,1.387Z" transform="translate(-295.266 -402.549)" fill="#fa7697"/>
    </g>
    <g id="Group_7894" data-name="Group 7894" transform="translate(275.288 168.758)">
      <g id="Group_7893" data-name="Group 7893">
        <path id="Path_4572" data-name="Path 4572" d="M425.04,245.907c-.531,2.011-1.04,4-1.571,6.01-.023.092,3.328,1.04,3.3,1.086.532-2.011,1.041-4,1.572-6.01.046-.092-3.305-1.04-3.305-1.086Z" transform="translate(-423.469 -245.907)" fill="#ff8164"/>
      </g>
    </g>
    <g id="Group_7895" data-name="Group 7895" transform="translate(244.586 163.391)">
      <path id="Path_4573" data-name="Path 4573" d="M381.048,237.2c.647,2.312,1.295,4.646,1.942,6.957.092.347,3.42-.231,3.49.069-.647-2.312-1.294-4.646-1.941-6.957-.093-.347-3.421.231-3.491-.069Z" transform="translate(-381.048 -237.159)" fill="#fa7697"/>
    </g>
    <g id="Group_7896" data-name="Group 7896" transform="translate(279.807 157.77)">
      <path id="Path_4574" data-name="Path 4574" d="M429.713,228.042c.647,2.312,1.294,4.646,1.942,6.957.092.347,3.42-.231,3.49.069-.647-2.312-1.294-4.646-1.942-6.957-.092-.347-3.42.232-3.49-.069Z" transform="translate(-429.713 -227.996)" fill="#fa7697"/>
    </g>
    <g id="Group_7898" data-name="Group 7898" transform="translate(230.162 136.233)">
      <g id="Group_7897" data-name="Group 7897">
        <path id="Path_4575" data-name="Path 4575" d="M345.85,196.161l5.131,1.318c-.3-.069.208-3.4-.139-3.491l-5.131-1.317c.3.092-.208,3.42.139,3.49Z" transform="translate(-345.711 -192.671)" fill="#ff8164"/>
      </g>
    </g>
    <g id="Group_7900" data-name="Group 7900" transform="translate(200.99 114.531)">
      <g id="Group_7899" data-name="Group 7899">
        <path id="Path_4576" data-name="Path 4576" d="M297.515,160.848c1.41.625,2.8,1.225,4.207,1.849a9.915,9.915,0,0,1-.139-1.733c-.023-.208,0-1.664-.161-1.733-1.411-.624-2.8-1.225-4.207-1.849a9.929,9.929,0,0,1,.139,1.733c.023.208,0,1.665.161,1.733Z" transform="translate(-297.215 -157.381)" fill="#ff8164"/>
      </g>
    </g>
    <g id="Group_7902" data-name="Group 7902" transform="translate(193.748 139.357)">
      <g id="Group_7901" data-name="Group 7901">
        <path id="Path_4577" data-name="Path 4577" d="M287.351,203.646a4.054,4.054,0,0,0,3.242-2.951c.059-.23-.871-1.229-1-1.435-.234-.345-.484-.661-.717-1.007a3.134,3.134,0,0,1-.3-.4,4.034,4.034,0,0,1-3.242,2.951,10.186,10.186,0,0,1,1,1.435c.085.145.851,1.426,1.013,1.407Z" transform="translate(-285.34 -197.852)" fill="#ff8164"/>
      </g>
    </g>
    <g id="Group_7904" data-name="Group 7904" transform="translate(155.427 230.584)">
      <g id="Group_7903" data-name="Group 7903">
        <path id="Path_4578" data-name="Path 4578" d="M221.909,349.553a6.943,6.943,0,0,0,3.7,6.033c.277.161,2.15-2.682,2.38-2.566a6.926,6.926,0,0,1-3.7-6.033c0,.232-1.017,1.063-1.2,1.272-.208.231-1.179.971-1.179,1.294Z" transform="translate(-221.909 -346.987)" fill="#ff8164"/>
      </g>
    </g>
    <g id="Group_7906" data-name="Group 7906" transform="translate(138.668 274.337)">
      <g id="Group_7905" data-name="Group 7905">
        <path id="Path_4579" data-name="Path 4579" d="M194.108,422.986a6.943,6.943,0,0,0,3.7,6.033c.277.161,2.15-2.681,2.381-2.566a6.925,6.925,0,0,1-3.7-6.032c0,.231-1.018,1.063-1.2,1.271-.208.231-1.179.971-1.179,1.294Z" transform="translate(-194.108 -420.421)" fill="#ff8164"/>
      </g>
    </g>
    <g id="Group_7908" data-name="Group 7908" transform="translate(209.234 252.65)">
      <g id="Group_7907" data-name="Group 7907">
        <path id="Path_4580" data-name="Path 4580" d="M310.784,393.9l3.328,2.7a10.442,10.442,0,0,1,.324-1.71c.069-.416.139-.809.208-1.225,0-.069.115-.485.069-.508l-3.329-2.7a10.436,10.436,0,0,1-.324,1.71c-.069.416-.138.809-.208,1.225,0,.069-.116.486-.069.509Z" transform="translate(-310.773 -390.456)" fill="#3f67f2"/>
      </g>
    </g>
    <g id="Group_7910" data-name="Group 7910" transform="translate(128.636 251.097)">
      <g id="Group_7909" data-name="Group 7909">
        <path id="Path_4581" data-name="Path 4581" d="M177.581,390.95l5.062,2.566c.278.139,2.058-2.75,2.288-2.634l-5.062-2.566c-.277-.139-2.057,2.75-2.288,2.634Z" transform="translate(-177.581 -388.31)" fill="#ff8164"/>
      </g>
    </g>
    <g id="Group_7911" data-name="Group 7911" transform="translate(142.527 126.358)">
      <path id="Path_4582" data-name="Path 4582" d="M201.589,176.831c-.3,2.08-.6,4.183-.9,6.263-.023.162,6.865,1.295,6.842,1.364.3-2.081.6-4.184.9-6.264.046-.185-6.842-1.295-6.842-1.364Z" transform="translate(-200.687 -176.831)" fill="#fa7697"/>
    </g>
    <g id="Group_7913" data-name="Group 7913" transform="translate(176.735 102.911)">
      <g id="Group_7912" data-name="Group 7912">
        <path id="Path_4583" data-name="Path 4583" d="M268.3,142.293l-8.737-3.536c.277.115-1.988,6.633-1.618,6.8l8.737,3.536c-.277-.116,2.011-6.657,1.618-6.8Z" transform="translate(-257.908 -138.757)" fill="#3f67f2"/>
      </g>
    </g>
    <g id="Group_7915" data-name="Group 7915" transform="translate(171.557 285.291)">
      <g id="Group_7914" data-name="Group 7914">
        <path id="Path_4584" data-name="Path 4584" d="M254.476,437.543l-4.908-1.987c.156.065-1.117,3.727-.909,3.818l4.908,1.987c-.156-.065,1.13-3.74.909-3.818Z" transform="translate(-248.635 -435.556)" fill="#3f67f2"/>
      </g>
    </g>
    <g id="Group_7917" data-name="Group 7917" transform="translate(170.645 46.336)">
      <g id="Group_7916" data-name="Group 7916">
        <path id="Path_4585" data-name="Path 4585" d="M251.842,47.988l-4.081-1.652c.13.054-.929,3.1-.756,3.174l4.081,1.652c-.13-.054.939-3.109.756-3.174Z" transform="translate(-246.987 -46.336)" fill="#3f67f2"/>
      </g>
    </g>
    <g id="Group_7919" data-name="Group 7919" transform="translate(124.239 111.935)">
      <g id="Group_7918" data-name="Group 7918">
        <path id="Path_4586" data-name="Path 4586" d="M170.108,153.451c.208,2.311.439,4.623.647,6.934.023.138,4.646-.208,4.646-.139-.208-2.312-.439-4.623-.648-6.934,0-.139-4.646.185-4.646.139Z" transform="translate(-170.108 -153.277)" fill="#30d6af"/>
      </g>
    </g>
    <g id="Group_7920" data-name="Group 7920" transform="translate(100.006 116.372)">
      <path id="Path_4587" data-name="Path 4587" d="M129.859,160.455c0,2.034-.023,4.091-.023,6.125,0,.023,3.491.046,3.491.023,0-2.034.023-4.091.023-6.125,0-.046-3.491-.046-3.491-.023Z" transform="translate(-129.836 -160.44)" fill="#fa7697"/>
    </g>
    <g id="Group_7922" data-name="Group 7922" transform="translate(155.633 95.53)">
      <g id="Group_7921" data-name="Group 7921">
        <path id="Path_4588" data-name="Path 4588" d="M223.239,114.4a5.884,5.884,0,0,0-.509,6.195,7.41,7.41,0,0,0,1.757,0,9.058,9.058,0,0,1,1.757-.023,5.935,5.935,0,0,1,.509-6.195,7.41,7.41,0,0,1-1.757,0c-.254,0-1.618-.161-1.757.023Z" transform="translate(-222.081 -114.307)" fill="#ff8164"/>
      </g>
    </g>
    <g id="Group_7924" data-name="Group 7924" transform="translate(177.621 94.299)">
      <g id="Group_7923" data-name="Group 7923">
        <path id="Path_4589" data-name="Path 4589" d="M265.6,113.276c-2.057-.231-4.115-.462-6.171-.67-.093,0-.555,3.444-.6,3.444,2.057.231,4.114.462,6.171.67.092.023.554-3.444.6-3.444Z" transform="translate(-258.828 -112.606)" fill="#ffbc1f"/>
      </g>
    </g>
    <g id="Group_7926" data-name="Group 7926" transform="translate(144.96 77.359)">
      <g id="Group_7925" data-name="Group 7925">
        <path id="Path_4590" data-name="Path 4590" d="M207.895,89.2c-1.109,1.086-2.242,2.15-3.352,3.236.069-.069,2.589,2.335,2.7,2.219,1.109-1.086,2.242-2.15,3.351-3.236-.092.069-2.588-2.334-2.7-2.219Z" transform="translate(-204.543 -89.2)" fill="#3f67f2"/>
      </g>
    </g>
    <g id="Group_7928" data-name="Group 7928" transform="translate(116.196 66.461)">
      <g id="Group_7927" data-name="Group 7927">
        <path id="Path_4591" data-name="Path 4591" d="M160.181,74.146c-1.11,1.086-2.242,2.15-3.352,3.236.069-.069,2.589,2.335,2.7,2.219,1.11-1.086,2.242-2.15,3.352-3.236-.093.069-2.589-2.335-2.7-2.219Z" transform="translate(-156.829 -74.142)" fill="#3f67f2"/>
      </g>
    </g>
    <g id="Group_7930" data-name="Group 7930" transform="translate(75.435 98.694)">
      <g id="Group_7929" data-name="Group 7929">
        <path id="Path_4592" data-name="Path 4592" d="M85.925,118.682c-.829.812-1.676,1.607-2.506,2.419.052-.052,1.935,1.745,2.021,1.659.829-.813,1.676-1.607,2.506-2.419-.069.052-1.935-1.745-2.021-1.659Z" transform="translate(-83.419 -118.679)" fill="#3f67f2"/>
      </g>
    </g>
    <g id="Group_7932" data-name="Group 7932" transform="translate(168.137 117.238)">
      <g id="Group_7931" data-name="Group 7931">
        <path id="Path_4593" data-name="Path 4593" d="M249.816,161.868c-2.2.971-4.414,1.942-6.61,2.936-.324.139.717,3.329.439,3.467,2.2-.971,4.415-1.941,6.611-2.936.324-.138-.717-3.328-.439-3.467Z" transform="translate(-243.143 -161.868)" fill="#3f67f2"/>
      </g>
    </g>
    <g id="Group_7934" data-name="Group 7934" transform="translate(151.916 106.52)">
      <g id="Group_7933" data-name="Group 7933">
        <path id="Path_4594" data-name="Path 4594" d="M221.781,144.416a6.986,6.986,0,0,0-5.432,4.553c-.116.3,2.959,1.733,2.866,1.988a7.022,7.022,0,0,1,5.432-4.554c-.231.046-1.2-.855-1.433-1.017-.231-.185-1.11-1.04-1.433-.971Z" transform="translate(-216.347 -144.412)" fill="#ff8164"/>
      </g>
    </g>
    <g id="Group_7936" data-name="Group 7936" transform="translate(115.39 94.048)">
      <g id="Group_7935" data-name="Group 7935">
        <path id="Path_4595" data-name="Path 4595" d="M158,112.26l-2.565,5.062c-.139.278,2.75,2.058,2.634,2.288l2.566-5.062c.139-.277-2.773-2.057-2.635-2.288Z" transform="translate(-155.43 -112.26)" fill="#3f67f2"/>
      </g>
    </g>
    <g id="Group_7938" data-name="Group 7938" transform="translate(239.55 236.348)">
      <g id="Group_7937" data-name="Group 7937">
        <path id="Path_4596" data-name="Path 4596" d="M374.959,372.327c2.037-.659,4.1-1.317,6.135-1.976-.012.011-.821-2.417-.869-2.419-2.037.659-4.1,1.317-6.135,1.976.024,0,.832,2.43.869,2.419Z" transform="translate(-374.09 -367.932)" fill="#ff8164"/>
      </g>
    </g>
    <g id="Group_7940" data-name="Group 7940" transform="translate(259 244.807)">
      <g id="Group_7939" data-name="Group 7939">
        <path id="Path_4597" data-name="Path 4597" d="M401.494,382.3c1.242-.4,2.5-.8,3.741-1.205-.008.007-.5-1.474-.53-1.475-1.242.4-2.5.8-3.741,1.205.014,0,.507,1.482.53,1.475Z" transform="translate(-400.964 -379.619)" fill="#ff8164"/>
      </g>
    </g>
    <g id="Group_7942" data-name="Group 7942" transform="translate(254.566 78.75)">
      <g id="Group_7941" data-name="Group 7941">
        <path id="Path_4598" data-name="Path 4598" d="M395.367,93.8c1.242-.4,2.5-.8,3.741-1.205-.008.007-.5-1.474-.53-1.475-1.243.4-2.5.8-3.741,1.205.014,0,.507,1.482.53,1.475Z" transform="translate(-394.837 -91.123)" fill="#ff8164"/>
      </g>
    </g>
    <g id="Group_7944" data-name="Group 7944" transform="translate(101.53 100.535)">
      <g id="Group_7943" data-name="Group 7943">
        <path id="Path_4599" data-name="Path 4599" d="M132.931,123.9c1.243-.4,2.5-.8,3.741-1.205-.007.007-.5-1.474-.53-1.475-1.242.4-2.5.8-3.741,1.2.015,0,.508,1.482.53,1.476Z" transform="translate(-132.401 -121.222)" fill="#ff8164"/>
      </g>
    </g>
    <g id="Group_7946" data-name="Group 7946" transform="translate(246.228 232.13)">
      <g id="Group_7945" data-name="Group 7945">
        <path id="Path_4600" data-name="Path 4600" d="M383.318,351.382a8.867,8.867,0,0,0,5.432,3.329c.185.046,1.109-1.04,1.271-1.2.162-.138,1.063-1.248,1.248-1.225a9.219,9.219,0,0,1-5.432-3.329c.069.093-2.612,2.312-2.519,2.427Z" transform="translate(-383.316 -348.955)" fill="#30d6af"/>
      </g>
    </g>
    <g id="Group_7948" data-name="Group 7948" transform="translate(264.925 229.778)">
      <g id="Group_7947" data-name="Group 7947">
        <path id="Path_4601" data-name="Path 4601" d="M409.151,346.085a5.161,5.161,0,0,0,3.161,1.937c.108.027.646-.606.74-.7s.619-.726.727-.713a5.362,5.362,0,0,1-3.161-1.937c.04.054-1.521,1.345-1.466,1.412Z" transform="translate(-409.15 -344.673)" fill="#30d6af"/>
      </g>
    </g>
    <g id="Group_7950" data-name="Group 7950" transform="translate(260.442 216.903)">
      <g id="Group_7949" data-name="Group 7949">
        <path id="Path_4602" data-name="Path 4602" d="M402.956,323.754c.786.763,1.572,1.526,2.358,2.311a2.089,2.089,0,0,0,.486.185c.392.139.785.277,1.155.416.393.138.786.277,1.156.393.116.046.416.069.486.161-.786-.763-1.572-1.526-2.358-2.311a2.083,2.083,0,0,0-.485-.185c-.393-.138-.786-.277-1.156-.416-.393-.138-.786-.277-1.156-.393a2.384,2.384,0,0,1-.486-.161Z" transform="translate(-402.956 -323.754)" fill="#ff8164"/>
      </g>
    </g>
    <g id="Group_7952" data-name="Group 7952" transform="translate(88.359 100.067)">
      <g id="Group_7951" data-name="Group 7951">
        <path id="Path_4603" data-name="Path 4603" d="M119.521,145.486c7.7,1.295,13.429,8.737,13.406,16.457a19.287,19.287,0,0,1-3.884,11.21,21.565,21.565,0,0,1-1.757,2.1c-.185.208-1.526,1.456-.069.139,1.272-1.156.416-.393.093-.139-.485.37-.994.717-1.526,1.063a15.059,15.059,0,0,1-6.263,2.4,6.437,6.437,0,0,1-6.126-2.4,5.112,5.112,0,0,1-.994-2.612,3.75,3.75,0,0,1,.162-1.433c.254-.832,1.433-1.964-.416-.324l-.971.832c3.883-2.982,8.228.554,10.424,3.837A21.021,21.021,0,0,1,124.976,187a24.187,24.187,0,0,1-1.826,10.7,22.656,22.656,0,0,1-2.658,4.738,19.48,19.48,0,0,1-1.78,2.1c-.185.208-.416.392-.6.6-.116.138,2.173-1.826,1.178-1.086-.462.347-.9.693-1.387.994-3.444,2.265-9.13,4-12.066,0a4.97,4.97,0,0,1-.74-4.969c.093-.185.185-.324.278-.486.717-1.294-2.52,1.71-1.526,1.318a8.761,8.761,0,0,1,1.086-.439,5.181,5.181,0,0,1,2.658.115c4.531,1.341,4.808,6.541,3.237,10.286-1.849,4.415-5.779,7.512-7.743,11.88a22.108,22.108,0,0,0,5.223,24.917c.116.115,2.52-2.381,2.612-2.312a21.967,21.967,0,0,1-6.981-17.89,20.658,20.658,0,0,1,2.959-9.292c2.127-3.444,5.293-6.264,6.727-10.124,1.179-3.167,1.086-7.327-2.173-9.2a5.363,5.363,0,0,0-4.068-.624c-1.456.416-2.635,1.78-3.722,2.773a4.172,4.172,0,0,0-1.594,3.329,5.848,5.848,0,0,0,1.895,3.976c2.936,2.681,7.489,1.364,10.518-.416a32.259,32.259,0,0,0,6.957-5.825,22.445,22.445,0,0,0,4.623-7.628,23.2,23.2,0,0,0-.532-17.682c-1.41-2.959-3.722-6.31-7.072-7.188-3.167-.832-5.8,1.41-7.79,3.629-2.242,2.519-.254,6.286,2.5,7.419,3.652,1.5,7.928-.508,10.91-2.634,5.5-3.907,10.379-9.385,11.233-16.319a17.179,17.179,0,0,0-8.691-16.919,13.941,13.941,0,0,0-4.576-1.549c-.232-.046-1.133.994-1.318,1.156-.069.116-.971,1.179-1.2,1.133Z" transform="translate(-101.277 -143.196)" fill="#ffbc1f"/>
      </g>
    </g>
    <g id="Group_7954" data-name="Group 7954" transform="translate(236.473 175.689)">
      <g id="Group_7953" data-name="Group 7953">
        <path id="Path_4604" data-name="Path 4604" d="M369.856,268.912c2.655,2.336,6.623,5.4,10.314,3.082,1.547-.971,1.736-2.59,1.984-4.222a3.4,3.4,0,0,0-1.4-3.364c-1.576-1-3.268.141-3.968,1.562a9.408,9.408,0,0,0-.7,2.337,18.074,18.074,0,0,0-.423,2.66,21.961,21.961,0,0,0,2.757,11.624,22.376,22.376,0,0,0,3.677,4.94,10.988,10.988,0,0,0,4.77,3.1,5.276,5.276,0,0,0,5.018-1.168,3.543,3.543,0,0,0,.963-1.858,11.238,11.238,0,0,0,.409-2.406,3.233,3.233,0,0,0-2.364-2.97,2.577,2.577,0,0,0-2.962,2.167,10.61,10.61,0,0,0-.335,4.869,17.7,17.7,0,0,0,2.422,5.264,26.125,26.125,0,0,0,8.957,8.641c3.224,1.872,8.082,2.731,9.57,6.5a4.688,4.688,0,0,1,.292,1.182,3.322,3.322,0,0,0,.029.549c.059.323.2-1.07.233-1.1a1.737,1.737,0,0,0-.131.352c-.277.648-.131,1.45-.408,2.1a11.138,11.138,0,0,0,.554-2.28,5.28,5.28,0,0,0,.1-1.97,5.991,5.991,0,0,0-2.466-3.673,27.263,27.263,0,0,0-5.062-2.548,25.992,25.992,0,0,1-12.27-11.6,12,12,0,0,1-1.59-4.728c-.015-.323.015-.633.015-.943.014,1.492-.394,1.534-.117.887a2.658,2.658,0,0,1,.234-.45,2.506,2.506,0,0,1,1.633-1.112,2.9,2.9,0,0,1,2.947,1.7,2.708,2.708,0,0,1,.277.816c.029.155.029.31.044.465.088.816.612-1.759.16-.957a4.28,4.28,0,0,1-1.59,1.689c-3.3,1.928-6.842-.436-9.089-2.758a22.568,22.568,0,0,1-5.4-9.331,21.653,21.653,0,0,1-.875-5.545c-.015-.394-.015-.788,0-1.168a4.925,4.925,0,0,1,.043-.661c.132-1.393-.423,1.239-.043.338a4.826,4.826,0,0,1,1.342-2.139,2.564,2.564,0,0,1,3.822.62,3.836,3.836,0,0,1,.584,1.942c.058.845.583-1.787.2-1.013a2.953,2.953,0,0,1-.336.591,3.982,3.982,0,0,1-.846.858,5.994,5.994,0,0,1-5.267.62,15.86,15.86,0,0,1-5.31-3.533,5.1,5.1,0,0,1-.219,1.041c-.014.085-.277.915-.19,1Z" transform="translate(-369.838 -264.03)" fill="#30d6af"/>
      </g>
    </g>
    <g id="Group_7955" data-name="Group 7955" transform="translate(155.496 193.523)">
      <path id="Path_4605" data-name="Path 4605" d="M248.275,308.919c4.618,2.446,8.571,7.182,7.945,12.681a9.686,9.686,0,0,1-3.288,6.38,7.387,7.387,0,0,1-3.014,1.546,2.273,2.273,0,0,0-.352.078c-.822.235,1.252-.039,1.272-.02a4.322,4.322,0,0,0-.724-.078,7.832,7.832,0,0,1-1.644-.431,6.711,6.711,0,0,1-4.422-5.107l-2.955.117c6.379.939,11.468,6.38,12.72,12.6,1.331,6.634-2.388,12.877-8.356,15.773a16.07,16.07,0,0,1-5.088,1.526c-.313.04-1.663.118.1.04,1.7-.079.391-.04-.04-.079-.47-.039-.919-.078-1.369-.156a13.976,13.976,0,0,1-2.681-.743l-2.524.117h-.176c2.388.1,4.012,2.388,4.207,4.618.274,3.072-2.074,5.694-4.246,7.534-2.466,2.094-5.558,3.855-7.045,6.869-1.115,2.25-1.233,5.166.626,7.044.156.157,1.253-.039,1.487-.039.216,0,1.331-.234,1.468-.078-1.918-1.937-1.741-5.01-.509-7.279,1.663-3.072,4.912-4.795,7.436-7.065,2.152-1.937,4.324-4.736,3.62-7.828a4.612,4.612,0,0,0-4.755-3.855l-1.605.059a2.832,2.832,0,0,1-.9.059,20.413,20.413,0,0,0,10.41.626,16.61,16.61,0,0,0,9.315-4.873c5.088-5.3,4.932-13.268.606-19a15.1,15.1,0,0,0-9.706-5.969c-.294-.039-2.955.176-2.955.117.821,5.382,7.123,6.242,11.526,5.382,5.851-1.155,7.788-8.474,5.694-13.366a15.4,15.4,0,0,0-7.1-7.3c-.294-.157-1.135.039-1.487.039s-1.193.215-1.487.059Z" transform="translate(-225.782 -308.761)" fill="#fa7697"/>
    </g>
    <g id="Group_7957" data-name="Group 7957" transform="translate(215.044 179.365)">
      <g id="Group_7956" data-name="Group 7956">
        <path id="Path_4606" data-name="Path 4606" d="M336.853,292c3.007.676,4.211,3.879,3.953,6.7a9.03,9.03,0,0,1-.439,2.059,7.785,7.785,0,0,1-.413.956c-.112.229-.259.421-.393.641,1.761-3.064,1.572-2.047.774-1.189a22.882,22.882,0,0,1-4.4,3.443c-3.038,1.935-6.082,3.695-8.312,6.629-2.021,2.644-4.365,5.486-3.666,9.042,1.025,5.362,7.164,7.947,8.294,13.225a7.108,7.108,0,0,1-.586,4.526,11.1,11.1,0,0,1-.6,1.13c-.927,1.526.258-.223.392-.444a7.008,7.008,0,0,1-.479.609c-.58.743-1.138,1.5-1.705,2.269-2.049,2.781-3.991,5.479-3.837,9.1.407,9.257,9.723,13.7,17.1,16.8.281.106,1.849-2.907,2.065-2.825-6.778-2.854-14.581-6.4-16.689-14.172a11.333,11.333,0,0,1-.275-4.928,10.2,10.2,0,0,1,.718-2.274,10.353,10.353,0,0,1,.7-1.316c.142-.242.872-1.251.02-.117-.806,1.078-.2.27-.017.043,1.138-1.5,2.269-2.97,3.351-4.512a10.572,10.572,0,0,0,2-4.458c.727-5.611-5.5-8.946-7.7-13.42a7.278,7.278,0,0,1-.11-6.6c.178-.4,1.25-2.047.231-.6-1.011,1.42.284-.164.619-.457,2.735-2.569,6.221-4.061,9.137-6.389a21.093,21.093,0,0,0,3.738-4.166,11.56,11.56,0,0,0,2.357-4.371c.67-3.059-.416-6.96-3.808-7.733-.138-.027-.945,1.248-1.054,1.4a5.888,5.888,0,0,1-.951,1.394Z" transform="translate(-323.828 -289.198)" fill="#ffbc1f"/>
      </g>
    </g>
    <g id="Group_7959" data-name="Group 7959" transform="translate(168.664 93.455)">
      <g id="Group_7958" data-name="Group 7958">
        <path id="Path_4607" data-name="Path 4607" d="M321.054,126.221a9.528,9.528,0,0,0-8.066,3.375,16.988,16.988,0,0,0-4.022,9.268c-1.018,6.8.023,14.285-4.115,20.225a10.43,10.43,0,0,1-7.35,4.553c-3.259.393-6.495-.532-9.684-1.11-3.144-.578-6.449-.9-9.43.486-2.8,1.294-4.831,3.744-6.657,6.148-2.126,2.773-4.068,5.663-7.1,7.535-2.844,1.78-6.472,2.658-9.385.532a7.6,7.6,0,0,1-.115,1.733c-.023.231-.254,1.618-.069,1.733,2.473,1.826,5.548,1.456,8.182.139,2.889-1.433,4.924-3.745,6.842-6.287,1.849-2.45,3.629-5.062,6.148-6.911a12.129,12.129,0,0,1,8.9-2.034c6.079.693,13.013,3.674,18.075-1.364,4.808-4.762,4.738-12.042,5.155-18.306.278-4.161.948-8.414,3.514-11.835,2.126-2.82,5.316-4.877,8.945-4.437a33.085,33.085,0,0,0,.231-3.444Z" transform="translate(-254.993 -126.165)" fill="#ff8164"/>
      </g>
    </g>
    <g id="Group_7961" data-name="Group 7961" transform="translate(89.239 210.193)">
      <g id="Group_7960" data-name="Group 7960">
        <path id="Path_4608" data-name="Path 4608" d="M114.847,321.817c-1.026,4.445-2.125,9.061-1.484,13.641a15.593,15.593,0,0,0,1.922,5.805,14.8,14.8,0,0,0,4.053,4.3,14.75,14.75,0,0,1,4.105,3.95c1.156,1.961,1.192,4.307,1.56,6.5a10.328,10.328,0,0,0,6.258,7.914c3.62,1.539,7.308.628,10.859-.663-1.094.4-2.265.539-3.358.944-.023,0,3.425-.765,1.576-.46l-.46.053a8.15,8.15,0,0,1-1.064.052,9.422,9.422,0,0,1-2.431-.3,11.227,11.227,0,0,1-4.157-1.966,10.2,10.2,0,0,1-2.935-3.48,16.963,16.963,0,0,1-1.256-5.277,9.73,9.73,0,0,0-2.055-5.348,29.39,29.39,0,0,0-3.994-3.381,14.2,14.2,0,0,1-5.218-9.2c-.749-4.707.36-9.441,1.419-14.006a9.187,9.187,0,0,1-1.694.45c-.161.019-1.6.276-1.645.468Z" transform="translate(-113.173 -320.899)" fill="#3f67f2"/>
      </g>
    </g>
    <g id="Group_7963" data-name="Group 7963" transform="translate(239.935 70.886)">
      <g id="Group_7962" data-name="Group 7962">
        <path id="Path_4609" data-name="Path 4609" d="M361.441,82.179c.961.048,1.932.106,2.892.153.058,0,.193-1.922.221-1.922-.961-.048-1.932-.106-2.892-.153-.058,0-.2,1.922-.221,1.922Z" transform="translate(-361.441 -80.257)" fill="#ff8164"/>
      </g>
    </g>
    <g id="Group_7965" data-name="Group 7965" transform="translate(216.259 66.809)">
      <g id="Group_7964" data-name="Group 7964">
        <path id="Path_4610" data-name="Path 4610" d="M323.1,78.992a5.9,5.9,0,0,0,5.732,2.612c.208-.023.74-1.941.832-2.173a11.53,11.53,0,0,1,.786-2.2,5.874,5.874,0,0,1-5.732-2.612,10.684,10.684,0,0,1-.832,2.173c-.116.3-.971,1.918-.786,2.2Z" transform="translate(-323.073 -74.623)" fill="#ffbc1f"/>
      </g>
    </g>
    <g id="Group_7967" data-name="Group 7967" transform="translate(224.528 56.476)">
      <g id="Group_7966" data-name="Group 7966">
        <path id="Path_4611" data-name="Path 4611" d="M335.7,61.471a1.517,1.517,0,0,0,1.475.672c.054-.006.19-.5.214-.559a2.981,2.981,0,0,1,.2-.565,1.512,1.512,0,0,1-1.475-.672,2.729,2.729,0,0,1-.214.559c-.03.077-.25.494-.2.565Z" transform="translate(-335.697 -60.347)" fill="#ffbc1f"/>
      </g>
    </g>
    <g id="Group_7969" data-name="Group 7969" transform="translate(244.979 94.333)">
      <g id="Group_7968" data-name="Group 7968">
        <path id="Path_4612" data-name="Path 4612" d="M381.592,115.395c1.6.239,3.219.478,4.819.735.019,0,.441-2.741.4-2.741-1.6-.239-3.219-.478-4.819-.735,0-.019-.423,2.722-.4,2.741Z" transform="translate(-381.591 -112.654)" fill="#ff8164"/>
      </g>
    </g>
    <g id="Group_7971" data-name="Group 7971" transform="translate(220.189 98.436)">
      <g id="Group_7970" data-name="Group 7970">
        <path id="Path_4613" data-name="Path 4613" d="M329.247,118.323c.716,1.433,1.433,2.843,2.15,4.276a6.722,6.722,0,0,0,1.734.185,7.969,7.969,0,0,1,1.733.139c-.716-1.433-1.433-2.843-2.15-4.276a6.751,6.751,0,0,0-1.733-.185c-.185-.023-1.641.023-1.734-.138Z" transform="translate(-329.247 -118.323)" fill="#ffbc1f"/>
      </g>
    </g>
    <g id="Group_7973" data-name="Group 7973" transform="translate(195.354 66.585)">
      <g id="Group_7972" data-name="Group 7972">
        <path id="Path_4614" data-name="Path 4614" d="M287.97,74.314c.6,1.71,1.2,3.42,1.8,5.155.069.208,1.41.531,1.618.624.231.093,1.572.37,1.641.6-.6-1.71-1.2-3.42-1.8-5.155-.069-.208-1.411-.531-1.618-.624-.231-.093-1.572-.393-1.641-.6Z" transform="translate(-287.97 -74.314)" fill="#ff8164"/>
      </g>
    </g>
    <g id="Group_7975" data-name="Group 7975" transform="translate(239.434 103.119)">
      <g id="Group_7974" data-name="Group 7974">
        <path id="Path_4615" data-name="Path 4615" d="M361.535,141.088c1.549,1.086,3.1,2.2,4.646,3.282.254.185,2.45-2.427,2.658-2.265-1.549-1.086-3.1-2.2-4.646-3.282-.255-.185-2.451,2.4-2.658,2.265Z" transform="translate(-361.535 -138.813)" fill="#ff8164"/>
      </g>
    </g>
    <g id="Group_7977" data-name="Group 7977" transform="translate(215.139 85.924)">
      <g id="Group_7976" data-name="Group 7976">
        <path id="Path_4616" data-name="Path 4616" d="M321.2,103.309c1.549,1.086,3.1,2.2,4.646,3.282.255.185,2.45-2.427,2.658-2.265-1.549-1.086-3.1-2.2-4.646-3.282-.255-.185-2.451,2.4-2.658,2.265Z" transform="translate(-321.199 -101.034)" fill="#ff8164"/>
      </g>
    </g>
  </g>
</svg>
